<svg xmlns="http://www.w3.org/2000/svg" viewBox="0 0 500 500"><g id="freepik--Device--inject-53"><path d="M245.79,165.76h20.82l21,240H266.79a19.46,19.46,0,0,1-19-17.47L229.84,183.23A15.76,15.76,0,0,1,245.79,165.76Z" style="fill:#263238"></path><path d="M232.9,189.83a1.87,1.87,0,0,0-1.83-1.68,1.51,1.51,0,0,0-1.52,1.68l1.4,16.08a1.87,1.87,0,0,0,1.82,1.67,1.51,1.51,0,0,0,1.53-1.67Z" style="fill:#407BFF"></path><path d="M232.9,189.83a1.87,1.87,0,0,0-1.83-1.68,1.51,1.51,0,0,0-1.52,1.68l1.4,16.08a1.87,1.87,0,0,0,1.82,1.67,1.51,1.51,0,0,0,1.53-1.67Z" style="fill:#fff;opacity:0.30000000000000004"></path><path d="M271.05,405.77h85.8A15.76,15.76,0,0,0,372.8,388.3L354.86,183.23a19.46,19.46,0,0,0-19-17.47H250.06a15.75,15.75,0,0,0-15.95,17.47L252.05,388.3A19.44,19.44,0,0,0,271.05,405.77Z" style="fill:#407BFF"></path><path d="M250.41,169.76h22.3a3.25,3.25,0,0,1,3.1,2.54l.15.7a7.9,7.9,0,0,0,7.57,6.19h21.2a6.37,6.37,0,0,0,6.49-6.19l0-.7a2.62,2.62,0,0,1,2.66-2.54h22.3a15,15,0,0,1,14.65,13.47L368.79,388.3a12.14,12.14,0,0,1-12.29,13.46H270.7a15,15,0,0,1-14.64-13.46L238.12,183.23A12.14,12.14,0,0,1,250.41,169.76Z" style="fill:#407BFF"></path><path d="M250.41,169.76h22.3a3.25,3.25,0,0,1,3.1,2.54l.15.7a7.9,7.9,0,0,0,7.57,6.19h21.2a6.37,6.37,0,0,0,6.49-6.19l0-.7a2.62,2.62,0,0,1,2.66-2.54h22.3a15,15,0,0,1,14.65,13.47L368.79,388.3a12.14,12.14,0,0,1-12.29,13.46H270.7a15,15,0,0,1-14.64-13.46L238.12,183.23A12.14,12.14,0,0,1,250.41,169.76Z" style="fill:#fff;opacity:0.8"></path><g style="opacity:0.2"><path d="M298.69,172a1.89,1.89,0,0,0,1.86,1.7,1.53,1.53,0,0,0,1.55-1.7,1.9,1.9,0,0,0-1.85-1.71A1.55,1.55,0,0,0,298.69,172Z"></path><path d="M286.46,170.33h5.84a1.92,1.92,0,0,1,1.86,1.71,1.54,1.54,0,0,1-1.56,1.7h-5.84a1.89,1.89,0,0,1-1.85-1.7A1.53,1.53,0,0,1,286.46,170.33Z"></path></g><g style="opacity:0.2"><polygon points="341.15 179.15 339.35 179.15 339.19 177.35 340.99 177.35 341.15 179.15"></polygon><polygon points="337.38 177.35 337.54 179.15 335.74 179.15 335.58 177.35 335.42 175.54 337.23 175.54 337.38 177.35"></polygon><polygon points="333.46 173.74 333.62 175.54 333.78 177.35 333.94 179.15 332.13 179.15 331.97 177.35 331.81 175.54 331.66 173.74 333.46 173.74"></polygon></g><path d="M247.94,173.86l.47,5.29h7.94l-.12-1.32h.88l-.23-2.65H256l-.12-1.32Zm4.53,1.32h2.65l.23,2.65H252.7Z" style="opacity:0.2"></path><g style="opacity:0.2"><path d="M287.14,395.84h51.58c1.56,0,1.35-2.43-.21-2.43H286.93c-1.56,0-1.35,2.43.21,2.43Z"></path></g><path d="M353.29,350.1H341.56a7.5,7.5,0,0,1-7.33-6.74l-1-11.74a6.08,6.08,0,0,1,6.15-6.74h11.74a7.51,7.51,0,0,1,7.33,6.74l1,11.74A6.08,6.08,0,0,1,353.29,350.1Z" style="fill:#407BFF"></path><path d="M353.29,350.1H341.56a7.5,7.5,0,0,1-7.33-6.74l-1-11.74a6.08,6.08,0,0,1,6.15-6.74h11.74a7.51,7.51,0,0,1,7.33,6.74l1,11.74A6.08,6.08,0,0,1,353.29,350.1Z" style="fill:#fff;opacity:0.5"></path><path d="M349.92,311.54H338.19a7.5,7.5,0,0,1-7.33-6.74l-1-11.73a6.07,6.07,0,0,1,6.15-6.74h11.74a7.5,7.5,0,0,1,7.33,6.74l1,11.73A6.08,6.08,0,0,1,349.92,311.54Z" style="fill:#407BFF"></path><path d="M349.92,311.54H338.19a7.5,7.5,0,0,1-7.33-6.74l-1-11.73a6.07,6.07,0,0,1,6.15-6.74h11.74a7.5,7.5,0,0,1,7.33,6.74l1,11.73A6.08,6.08,0,0,1,349.92,311.54Z" style="fill:#fff;opacity:0.5"></path><path d="M311.42,311.54H299.69a7.5,7.5,0,0,1-7.33-6.74l-1-11.73a6.07,6.07,0,0,1,6.15-6.74h11.74a7.5,7.5,0,0,1,7.33,6.74l1,11.73A6.07,6.07,0,0,1,311.42,311.54Z" style="fill:#407BFF"></path><path d="M311.42,311.54H299.69a7.5,7.5,0,0,1-7.33-6.74l-1-11.73a6.07,6.07,0,0,1,6.15-6.74h11.74a7.5,7.5,0,0,1,7.33,6.74l1,11.73A6.07,6.07,0,0,1,311.42,311.54Z" style="fill:#fff;opacity:0.5"></path><path d="M272.92,311.54H261.19a7.5,7.5,0,0,1-7.33-6.74l-1-11.73a6.08,6.08,0,0,1,6.15-6.74h11.74a7.5,7.5,0,0,1,7.33,6.74l1,11.73A6.08,6.08,0,0,1,272.92,311.54Z" style="fill:#407BFF"></path><path d="M314.8,350.1H303.06a7.51,7.51,0,0,1-7.33-6.74l-1-11.74a6.08,6.08,0,0,1,6.15-6.74h11.74a7.5,7.5,0,0,1,7.33,6.74l1,11.74A6.08,6.08,0,0,1,314.8,350.1Z" style="fill:#407BFF"></path><path d="M314.8,350.1H303.06a7.51,7.51,0,0,1-7.33-6.74l-1-11.74a6.08,6.08,0,0,1,6.15-6.74h11.74a7.5,7.5,0,0,1,7.33,6.74l1,11.74A6.08,6.08,0,0,1,314.8,350.1Z" style="fill:#fff;opacity:0.5"></path><path d="M268.78,295.37c.19,2.15-.75,3.89-2.9,3.89s-3.39-1.74-3.58-3.89.75-3.89,2.9-3.89S268.59,293.22,268.78,295.37Z" style="fill:#fff"></path><path d="M266.5,306.39h6l-.31-3.57c-.18-2-3-3.56-6.31-3.56s-5.85,1.59-5.68,3.56l.31,3.57Z" style="fill:#fff"></path><path d="M337.92,340.87l0-.36a2.93,2.93,0,0,1,2.61-3.29,3.3,3.3,0,0,1,1.93.46,4.13,4.13,0,0,1,4.15-3.42,5.14,5.14,0,0,1,4.57,3,2.88,2.88,0,0,1,2.25.75,4.22,4.22,0,0,1,1.52,2.89h0a1.56,1.56,0,0,1-1.58,1.73H339.8A1.93,1.93,0,0,1,337.92,340.87Z" style="fill:#fff"></path><path d="M302.46,292.61l7.44,5.27a1.84,1.84,0,0,1,.26,2.92l-6.52,5.27a2,2,0,0,1-3.06-1.46l-.92-10.54A1.71,1.71,0,0,1,302.46,292.61Z" style="fill:#407BFF"></path><path d="M346,305.61h-4.91a4.7,4.7,0,0,1-4.59-4.22l-.43-4.91a3.8,3.8,0,0,1,3.85-4.22h4.91a4.7,4.7,0,0,1,4.59,4.22l.43,4.91A3.8,3.8,0,0,1,346,305.61Z" style="fill:#407BFF"></path><path d="M309,333.38h0a1.17,1.17,0,0,1-1.19,1h-5.25a1.18,1.18,0,0,0-1.2,1.31l.52,5.95a1.46,1.46,0,0,0,1.43,1.31h10a1.18,1.18,0,0,0,1.19-1.31l-.48-5.56-.15-1.7-.07-.77a1.46,1.46,0,0,0-1.43-1.31H310.2A1.18,1.18,0,0,0,309,333.38Z" style="fill:#fff"></path><path d="M345.65,298.93a2.43,2.43,0,0,1-2.46,2.7,3,3,0,0,1-2.93-2.7,2.42,2.42,0,0,1,2.46-2.69A3,3,0,0,1,345.65,298.93Z" style="fill:#fff"></path><path d="M347.1,295.35a.8.8,0,0,1-.8.89,1,1,0,0,1-1-.89.8.8,0,0,1,.81-.88A1,1,0,0,1,347.1,295.35Z" style="fill:#fff"></path><path d="M276.3,350.1H264.56a7.51,7.51,0,0,1-7.33-6.74l-1-11.74a6.08,6.08,0,0,1,6.16-6.74h11.73a7.5,7.5,0,0,1,7.33,6.74l1,11.74A6.08,6.08,0,0,1,276.3,350.1Z" style="fill:#407BFF"></path><path d="M276.3,350.1H264.56a7.51,7.51,0,0,1-7.33-6.74l-1-11.74a6.08,6.08,0,0,1,6.16-6.74h11.73a7.5,7.5,0,0,1,7.33,6.74l1,11.74A6.08,6.08,0,0,1,276.3,350.1Z" style="fill:#fff;opacity:0.5"></path><path d="M268.7,330.35a6.43,6.43,0,0,0-6.51,7.14,7.62,7.62,0,0,0,1,3.08l-.33,4,4-.69a7.48,7.48,0,0,0,3.14.71,6.43,6.43,0,0,0,6.51-7.14A8,8,0,0,0,268.7,330.35Z" style="fill:#407BFF"></path><path d="M273,339.81a6.15,6.15,0,0,0-5.94-5.47,2.63,2.63,0,0,0-1.8.45c-.26.29.06,1,.72,1.63s1.41.87,1.68.58a2.59,2.59,0,0,0,.34-1.26,5,5,0,0,1,3.53,3.25,2.3,2.3,0,0,0-1.21.45c-.27.29.05,1,.71,1.63s1.42.86,1.68.57A2.57,2.57,0,0,0,273,339.81Z" style="fill:#fff"></path><path d="M345.41,274.28H260.84a9.81,9.81,0,0,1-9.59-8.82h0a8,8,0,0,1,8.05-8.82h84.57a9.81,9.81,0,0,1,9.59,8.82h0A8,8,0,0,1,345.41,274.28Z" style="fill:#fff"></path><path d="M304.36,261.09a4.43,4.43,0,1,0,.4,6.69,1,1,0,0,0,.24,1.16l2.73,2.51a1,1,0,0,0,1.37,0,1,1,0,0,0-.12-1.37l-2.73-2.51a1,1,0,0,0-1.17-.14A4.68,4.68,0,0,0,304.36,261.09Zm-.47,5.57a3.42,3.42,0,1,1-.4-4.61A3.26,3.26,0,0,1,303.89,266.66Z" style="opacity:0.2"></path><path d="M251.12,201.93l.95,10.78h-2l-.8-9.1H247l-.14-1.68Z" style="fill:#407BFF"></path><path d="M260.61,207.4a3.14,3.14,0,0,1,1,2.07,2.9,2.9,0,0,1-.33,1.71,2.86,2.86,0,0,1-1.33,1.23,5.21,5.21,0,0,1-2.3.45,7.87,7.87,0,0,1-2.26-.33,6.34,6.34,0,0,1-1.9-.92l.72-1.55a4.84,4.84,0,0,0,1.5.78,5.52,5.52,0,0,0,1.75.28,2.64,2.64,0,0,0,1.63-.44,1.28,1.28,0,0,0,.51-1.19,1.54,1.54,0,0,0-.68-1.18,3.19,3.19,0,0,0-1.8-.42h-1l-.12-1.37,2.2-2.91h-4.9l-.14-1.68h7.34l.11,1.34-2.34,3.11A4,4,0,0,1,260.61,207.4Z" style="fill:#407BFF"></path><path d="M262.94,206.59a1.33,1.33,0,0,1-.45-.92,1.1,1.1,0,0,1,1.15-1.27,1.32,1.32,0,0,1,.93.35,1.34,1.34,0,0,1,.44.92,1.13,1.13,0,0,1-.29.92,1.12,1.12,0,0,1-.86.36A1.32,1.32,0,0,1,262.94,206.59Zm.51,5.86a1.31,1.31,0,0,1-.45-.91,1.17,1.17,0,0,1,.28-.93,1.15,1.15,0,0,1,.87-.35,1.35,1.35,0,0,1,1.37,1.28,1.08,1.08,0,0,1-.29.91,1.12,1.12,0,0,1-.86.36A1.33,1.33,0,0,1,263.45,212.45Z" style="fill:#407BFF"></path><path d="M269.06,212.21a5,5,0,0,1-1.77-1.91,7.48,7.48,0,0,1-.84-3,6.7,6.7,0,0,1,.32-3,4,4,0,0,1,1.43-1.91,4,4,0,0,1,2.26-.65,4.54,4.54,0,0,1,2.37.65,5,5,0,0,1,1.77,1.91,7.33,7.33,0,0,1,.85,3,6.85,6.85,0,0,1-.32,3,3.77,3.77,0,0,1-3.7,2.56A4.49,4.49,0,0,1,269.06,212.21Zm3.95-2a4.75,4.75,0,0,0,.42-2.85,5.36,5.36,0,0,0-.91-2.85,2.36,2.36,0,0,0-1.91-.95,1.91,1.91,0,0,0-1.73.95,4.75,4.75,0,0,0-.42,2.85,5.36,5.36,0,0,0,.92,2.85,2.32,2.32,0,0,0,1.89,1A1.92,1.92,0,0,0,273,210.17Z" style="fill:#407BFF"></path><path d="M279.42,212.21a5,5,0,0,1-1.77-1.91,7.49,7.49,0,0,1-.85-3,6.69,6.69,0,0,1,.33-3,3.9,3.9,0,0,1,1.43-1.91,3.94,3.94,0,0,1,2.25-.65,4.58,4.58,0,0,1,2.38.65,5,5,0,0,1,1.77,1.91,7.49,7.49,0,0,1,.85,3,6.69,6.69,0,0,1-.33,3,3.86,3.86,0,0,1-1.44,1.91,4,4,0,0,1-2.26.65A4.48,4.48,0,0,1,279.42,212.21Zm3.95-2a4.75,4.75,0,0,0,.42-2.85,5.36,5.36,0,0,0-.92-2.85,2.34,2.34,0,0,0-1.91-.95,1.91,1.91,0,0,0-1.72.95,4.75,4.75,0,0,0-.42,2.85,5.36,5.36,0,0,0,.92,2.85,2.32,2.32,0,0,0,1.89,1A1.92,1.92,0,0,0,283.37,210.17Z" style="fill:#407BFF"></path><path d="M319,211.8l.08,1h-4.55l-.06-.76,2.24-2.33a2.41,2.41,0,0,0,.5-.69,1.39,1.39,0,0,0,.1-.59.87.87,0,0,0-.35-.66,1.49,1.49,0,0,0-.88-.23,1.58,1.58,0,0,0-1.39.64l-.85-.61a2,2,0,0,1,.91-.76,3.18,3.18,0,0,1,1.34-.27,2.69,2.69,0,0,1,1.65.48,1.73,1.73,0,0,1,.71,1.3,2,2,0,0,1-.13.94,3.06,3.06,0,0,1-.72,1l-1.51,1.57Z" style="fill:#407BFF"></path><path d="M323.35,209.5a1.87,1.87,0,0,1,.74,1.38,1.76,1.76,0,0,1-.18,1,1.72,1.72,0,0,1-.76.72,3,3,0,0,1-1.32.26,4.4,4.4,0,0,1-1.3-.19,3.62,3.62,0,0,1-1.08-.52l.4-.89a3.23,3.23,0,0,0,.87.44,3.12,3.12,0,0,0,1,.16,1.5,1.5,0,0,0,.94-.25.73.73,0,0,0,.28-.69.87.87,0,0,0-.43-.72,2.67,2.67,0,0,0-1.31-.24h-1.49l0-3.36h3.62l.08,1h-2.65V209h.59A3.25,3.25,0,0,1,323.35,209.5Z" style="fill:#407BFF"></path><path d="M325.22,209.29a1.67,1.67,0,0,1-.58-.54,1.51,1.51,0,0,1-.27-.74,1.31,1.31,0,0,1,.14-.74,1.22,1.22,0,0,1,.49-.54,1.41,1.41,0,0,1,.74-.2,1.62,1.62,0,0,1,.78.2,1.69,1.69,0,0,1,.59.54,1.5,1.5,0,0,1,.26.74,1.4,1.4,0,0,1-.13.74,1.37,1.37,0,0,1-.5.54,1.41,1.41,0,0,1-.74.19A1.61,1.61,0,0,1,325.22,209.29Zm1.34-.64a.82.82,0,0,0,.19-.64.91.91,0,0,0-.31-.64.92.92,0,0,0-.65-.26.8.8,0,0,0-.61.26.79.79,0,0,0-.2.64,1,1,0,0,0,1,.89A.79.79,0,0,0,326.56,208.65Z" style="fill:#407BFF"></path><path d="M339.86,212.86H329.39a1.83,1.83,0,0,1-1.79-1.65l0-.28a2.55,2.55,0,0,1,2.28-2.86,2.88,2.88,0,0,1,1.32.22,3.47,3.47,0,0,1,3.4-2.5,4.35,4.35,0,0,1,3.74,2.28,2.58,2.58,0,0,1,1.75.67,3.6,3.6,0,0,1,1.3,2.47A1.49,1.49,0,0,1,339.86,212.86Zm-9.74-4.17H330a2,2,0,0,0-1.75,2.23l0,.28a1.14,1.14,0,0,0,1.11,1H339.8a.92.92,0,0,0,.93-1,2.89,2.89,0,0,0-1.05-2,1.91,1.91,0,0,0-1.49-.51l-.24,0-.1-.23a3.66,3.66,0,0,0-3.22-2.09,2.92,2.92,0,0,0-2.93,2.41l-.08.41-.37-.22A2.23,2.23,0,0,0,330.12,208.69Z" style="fill:#407BFF"></path><path d="M340.93,206.35a1.45,1.45,0,0,1-1.41-1.3,1.17,1.17,0,0,1,1.19-1.3,1.45,1.45,0,0,1,1.41,1.3A1.18,1.18,0,0,1,340.93,206.35Zm-.19-2.24a.85.85,0,0,0-.86.94,1.05,1.05,0,0,0,1,.93.85.85,0,0,0,.86-.93A1.05,1.05,0,0,0,340.74,204.11Z" style="fill:#407BFF"></path><polygon points="340.84 203.18 340.48 203.18 340.36 201.82 340.72 201.82 340.84 203.18" style="fill:#407BFF"></polygon><polygon points="341.28 208.28 340.92 208.28 340.8 206.92 341.17 206.92 341.28 208.28" style="fill:#407BFF"></polygon><polygon points="344.07 205.23 342.71 205.23 342.68 204.87 344.03 204.87 344.07 205.23" style="fill:#407BFF"></polygon><polygon points="338.97 205.23 337.61 205.23 337.57 204.87 338.93 204.87 338.97 205.23" style="fill:#407BFF"></polygon><polygon points="342.17 203.85 341.89 203.6 342.76 202.64 343.04 202.89 342.17 203.85" style="fill:#407BFF"></polygon><polygon points="338.88 207.46 338.6 207.2 339.48 206.24 339.75 206.5 338.88 207.46" style="fill:#407BFF"></polygon><polygon points="343.19 207.46 342.14 206.5 342.38 206.24 343.42 207.2 343.19 207.46" style="fill:#407BFF"></polygon><polygon points="339.27 203.85 338.22 202.89 338.45 202.64 339.5 203.6 339.27 203.85" style="fill:#407BFF"></polygon></g><g id="freepik--Screen--inject-53"><path d="M106.18,112.22H131A3.59,3.59,0,0,1,134.4,115l.17.77a8.78,8.78,0,0,0,8.41,6.88h23.56a7.08,7.08,0,0,0,7.21-6.88l0-.77a2.9,2.9,0,0,1,2.95-2.82h24.78a16.66,16.66,0,0,1,16.27,15L237.71,355a13.49,13.49,0,0,1-13.65,15H128.73a16.66,16.66,0,0,1-16.27-15L92.52,127.18A13.49,13.49,0,0,1,106.18,112.22Z" style="fill:#407BFF"></path><path d="M106.18,112.22H131A3.59,3.59,0,0,1,134.4,115l.17.77a8.78,8.78,0,0,0,8.41,6.88h23.56a7.08,7.08,0,0,0,7.21-6.88l0-.77a2.9,2.9,0,0,1,2.95-2.82h24.78a16.66,16.66,0,0,1,16.27,15L237.71,355a13.49,13.49,0,0,1-13.65,15H128.73a16.66,16.66,0,0,1-16.27-15L92.52,127.18A13.49,13.49,0,0,1,106.18,112.22Z" style="fill:#fff;opacity:0.7000000000000001"></path><g style="opacity:0.2"><path d="M147,363.42h57.3c1.74,0,1.51-2.7-.23-2.7H146.76c-1.74,0-1.5,2.7.24,2.7Z"></path></g><path d="M201.51,112.22H176.73a2.9,2.9,0,0,0-2.95,2.82l0,.77a7.08,7.08,0,0,1-7.21,6.88H143a8.78,8.78,0,0,1-8.41-6.88l-.17-.77a3.59,3.59,0,0,0-3.44-2.82H106.18a13.49,13.49,0,0,0-13.66,15l4.94,56.44H222.72l-4.94-56.44A16.66,16.66,0,0,0,201.51,112.22Z" style="fill:#407BFF"></path><g style="opacity:0.5"><polygon points="207.01 122.65 205 122.65 204.83 120.65 206.83 120.65 207.01 122.65" style="fill:#fff"></polygon><polygon points="202.82 120.65 203 122.65 200.99 122.65 200.82 120.65 200.64 118.64 202.65 118.64 202.82 120.65" style="fill:#fff"></polygon><polygon points="198.46 116.64 198.64 118.64 198.81 120.65 198.99 122.65 196.98 122.65 196.81 120.65 196.63 118.64 196.46 116.64 198.46 116.64" style="fill:#fff"></polygon></g><path d="M103.44,116.77l.52,5.88h8.82l-.13-1.47h1l-.26-2.94h-1l-.13-1.47Zm5,1.47h2.94l.26,2.94h-2.94Z" style="fill:#fff;opacity:0.5"></path><path d="M129.19,176.47h-13A8.34,8.34,0,0,1,108,169l-1.14-13a6.76,6.76,0,0,1,6.83-7.49h13a8.34,8.34,0,0,1,8.15,7.49L136,169A6.76,6.76,0,0,1,129.19,176.47Z" style="fill:#fff"></path><path d="M124.59,158.5c.21,2.39-.83,4.32-3.22,4.32s-3.77-1.93-4-4.32.84-4.32,3.22-4.32S124.38,156.12,124.59,158.5Z" style="fill:#407BFF"></path><path d="M122.06,170.74h6.66l-.34-4c-.19-2.18-3.33-4-7-4s-6.5,1.78-6.31,4l.34,4Z" style="fill:#407BFF"></path><path d="M189.35,166.78H148.07a2.41,2.41,0,0,1-2.35-2.16h0a2,2,0,0,1,2-2.16H189a2.4,2.4,0,0,1,2.34,2.16h0A1.94,1.94,0,0,1,189.35,166.78Z" style="fill:#fff"></path><path d="M210.07,161.64h-9.32a1,1,0,0,1-1-.9h0a.82.82,0,0,1,.82-.9h9.32a1,1,0,0,1,1,.9h0A.8.8,0,0,1,210.07,161.64Z" style="fill:#fff"></path><path d="M210.42,165.74h-9.31a1,1,0,0,1-1-.9h0A.81.81,0,0,1,201,164h9.32a1,1,0,0,1,1,.89h0A.8.8,0,0,1,210.42,165.74Z" style="fill:#fff"></path><path d="M210.78,169.84h-9.31a1,1,0,0,1-1-.89h0a.81.81,0,0,1,.82-.9h9.32a1,1,0,0,1,1,.9h0A.8.8,0,0,1,210.78,169.84Z" style="fill:#fff"></path><path d="M159.72,220.85H116.18a4,4,0,0,1-4-3.64l-2-23.33a3.27,3.27,0,0,1,3.31-3.63H157a4,4,0,0,1,4,3.63l2,23.33A3.28,3.28,0,0,1,159.72,220.85Z" style="fill:#263238"></path><path d="M159.72,220.85H116.18a4,4,0,0,1-4-3.64l-2-23.33a3.27,3.27,0,0,1,3.31-3.63H157a4,4,0,0,1,4,3.63l2,23.33A3.28,3.28,0,0,1,159.72,220.85Z" style="fill:#fff;opacity:0.6000000000000001"></path><path d="M162.88,257H119.34a4,4,0,0,1-4-3.63l-2-23.33a3.28,3.28,0,0,1,3.31-3.64H160.2a4,4,0,0,1,4,3.64l2,23.33A3.27,3.27,0,0,1,162.88,257Z" style="fill:#263238"></path><path d="M162.88,257H119.34a4,4,0,0,1-4-3.63l-2-23.33a3.28,3.28,0,0,1,3.31-3.64H160.2a4,4,0,0,1,4,3.64l2,23.33A3.27,3.27,0,0,1,162.88,257Z" style="fill:#fff;opacity:0.6000000000000001"></path><path d="M171.29,353.12H127.75a4.05,4.05,0,0,1-4-3.63l-2-23.34a3.27,3.27,0,0,1,3.31-3.63h43.54a4,4,0,0,1,3.95,3.63l2,23.34A3.27,3.27,0,0,1,171.29,353.12Z" style="fill:#263238"></path><path d="M171.29,353.12H127.75a4.05,4.05,0,0,1-4-3.63l-2-23.34a3.27,3.27,0,0,1,3.31-3.63h43.54a4,4,0,0,1,3.95,3.63l2,23.34A3.27,3.27,0,0,1,171.29,353.12Z" style="fill:#fff;opacity:0.6000000000000001"></path><polygon points="234.45 317.68 109.19 317.68 104.31 261.83 229.56 261.83 234.45 317.68" style="fill:#263238"></polygon><path d="M165.94,279.85l10.95,7.76a2.71,2.71,0,0,1,.38,4.29l-9.6,7.75a2.87,2.87,0,0,1-4.49-2.14L161.82,282A2.52,2.52,0,0,1,165.94,279.85Z" style="fill:#fff"></path><path d="M212.24,205.55H173.35a2.85,2.85,0,0,1-2.79-2.57h0a2.31,2.31,0,0,1,2.34-2.56h38.89a2.85,2.85,0,0,1,2.79,2.56h0A2.32,2.32,0,0,1,212.24,205.55Z" style="fill:#263238"></path><path d="M206,216.6h-31.7a2.85,2.85,0,0,1-2.78-2.56h0a2.31,2.31,0,0,1,2.34-2.57h31.69a2.87,2.87,0,0,1,2.79,2.57h0A2.32,2.32,0,0,1,206,216.6Z" style="fill:#263238"></path><g style="opacity:0.6000000000000001"><path d="M212.24,205.55H173.35a2.85,2.85,0,0,1-2.79-2.57h0a2.31,2.31,0,0,1,2.34-2.56h38.89a2.85,2.85,0,0,1,2.79,2.56h0A2.32,2.32,0,0,1,212.24,205.55Z" style="fill:#fff"></path><path d="M206,216.6h-31.7a2.85,2.85,0,0,1-2.78-2.56h0a2.31,2.31,0,0,1,2.34-2.57h31.69a2.87,2.87,0,0,1,2.79,2.57h0A2.32,2.32,0,0,1,206,216.6Z" style="fill:#fff"></path></g><path d="M215.47,242.49H176.58a2.86,2.86,0,0,1-2.79-2.56h0a2.31,2.31,0,0,1,2.34-2.56H215a2.84,2.84,0,0,1,2.79,2.56h0A2.31,2.31,0,0,1,215.47,242.49Z" style="fill:#263238"></path><path d="M209.24,253.55H177.55a2.85,2.85,0,0,1-2.79-2.57h0a2.31,2.31,0,0,1,2.34-2.56h31.69a2.86,2.86,0,0,1,2.79,2.56h0A2.32,2.32,0,0,1,209.24,253.55Z" style="fill:#263238"></path><g style="opacity:0.6000000000000001"><path d="M215.47,242.49H176.58a2.86,2.86,0,0,1-2.79-2.56h0a2.31,2.31,0,0,1,2.34-2.56H215a2.84,2.84,0,0,1,2.79,2.56h0A2.31,2.31,0,0,1,215.47,242.49Z" style="fill:#fff"></path><path d="M209.24,253.55H177.55a2.85,2.85,0,0,1-2.79-2.57h0a2.31,2.31,0,0,1,2.34-2.56h31.69a2.86,2.86,0,0,1,2.79,2.56h0A2.32,2.32,0,0,1,209.24,253.55Z" style="fill:#fff"></path></g><path d="M224,339.37H185.06a2.85,2.85,0,0,1-2.79-2.57h0a2.31,2.31,0,0,1,2.34-2.56H223.5a2.86,2.86,0,0,1,2.79,2.56h0A2.32,2.32,0,0,1,224,339.37Z" style="fill:#263238"></path><path d="M217.71,350.42H186a2.87,2.87,0,0,1-2.79-2.57h0a2.32,2.32,0,0,1,2.34-2.56h31.7a2.85,2.85,0,0,1,2.78,2.56h0A2.31,2.31,0,0,1,217.71,350.42Z" style="fill:#263238"></path><g style="opacity:0.6000000000000001"><path d="M224,339.37H185.06a2.85,2.85,0,0,1-2.79-2.57h0a2.31,2.31,0,0,1,2.34-2.56H223.5a2.86,2.86,0,0,1,2.79,2.56h0A2.32,2.32,0,0,1,224,339.37Z" style="fill:#fff"></path><path d="M217.71,350.42H186a2.87,2.87,0,0,1-2.79-2.57h0a2.32,2.32,0,0,1,2.34-2.56h31.7a2.85,2.85,0,0,1,2.78,2.56h0A2.31,2.31,0,0,1,217.71,350.42Z" style="fill:#fff"></path></g></g></svg>
