<svg xmlns="http://www.w3.org/2000/svg" viewBox="0 0 500 500"><g id="freepik--Mechanisms--inject-136"><path d="M397.64,128.83a75.74,75.74,0,0,0-5.7-13.79h0l3.55-11.62-22.94-23L360.91,84h0a72.18,72.18,0,0,0-13.78-5.72h0l-5.7-10.73H309l-5.71,10.73A72.83,72.83,0,0,0,289.46,84h0l-11.63-3.57-23,23,3.56,11.63h0a73.79,73.79,0,0,0-5.7,13.79L242,134.56V167l10.73,5.71h0a73.07,73.07,0,0,0,5.71,13.78h0l-3.56,11.61,23,23,11.63-3.55a73.08,73.08,0,0,0,13.79,5.69L309,234h32.48l5.7-10.73h0a73.73,73.73,0,0,0,13.78-5.71l11.64,3.55,23-23L392,186.51h0a74.87,74.87,0,0,0,5.68-13.78h0L408.37,167V134.53Zm-72.46,80.83a58.89,58.89,0,1,1,58.9-58.89,58.9,58.9,0,0,1-58.9,58.89Z" style="fill:#007CED"></path><path d="M325.18,100.14a50.64,50.64,0,1,0,50.66,50.64A50.64,50.64,0,0,0,325.18,100.14Zm0,94.54a43.9,43.9,0,1,1,43.89-43.91h0A44,44,0,0,1,325.18,194.68Z" style="fill:#007CED"></path><path d="M397.64,128.83a75.74,75.74,0,0,0-5.7-13.79h0l3.55-11.62-22.94-23L360.91,84h0a72.18,72.18,0,0,0-13.78-5.72h0l-5.7-10.73H309l-5.71,10.73A72.83,72.83,0,0,0,289.46,84h0l-11.63-3.57-23,23,3.56,11.63h0a73.79,73.79,0,0,0-5.7,13.79L242,134.56V167l10.73,5.71h0a73.07,73.07,0,0,0,5.71,13.78h0l-3.56,11.61,23,23,11.63-3.55a73.08,73.08,0,0,0,13.79,5.69L309,234h32.48l5.7-10.73h0a73.73,73.73,0,0,0,13.78-5.71l11.64,3.55,23-23L392,186.51h0a74.87,74.87,0,0,0,5.68-13.78h0L408.37,167V134.53Zm-72.46,80.83a58.89,58.89,0,1,1,58.9-58.89,58.9,58.9,0,0,1-58.9,58.89Z" style="fill:#fff;opacity:0.4"></path><path d="M325.18,100.14a50.64,50.64,0,1,0,50.66,50.64A50.64,50.64,0,0,0,325.18,100.14Zm0,94.54a43.9,43.9,0,1,1,43.89-43.91h0A44,44,0,0,1,325.18,194.68Z" style="fill:#fff;opacity:0.4"></path><path d="M193.32,193.12a39.58,39.58,0,0,0-3-7.31l1.89-6.17L180,167.45l-6.17,1.89a39.54,39.54,0,0,0-7.31-3l-3-5.66H146.24l-3,5.66a39.54,39.54,0,0,0-7.31,3l-6.17-1.89-12.18,12.19,1.88,6.17a40.2,40.2,0,0,0-3,7.31l-5.7,3v17.24l5.7,3a39.5,39.5,0,0,0,3,7.31l-1.88,6.17,12.18,12.19,6.17-1.89a40.24,40.24,0,0,0,7.31,3l3,5.65h17.24l3-5.65a40.24,40.24,0,0,0,7.31-3l6.17,1.89,12.19-12.19-1.89-6.17a39.58,39.58,0,0,0,3-7.31l5.69-3V196.15Zm-38.46,36.13a24.49,24.49,0,1,1,24.49-24.49,24.5,24.5,0,0,1-24.49,24.49Z" style="fill:#263238"></path><path d="M193.32,193.12a39.58,39.58,0,0,0-3-7.31l1.89-6.17L180,167.45l-6.17,1.89a39.54,39.54,0,0,0-7.31-3l-3-5.66H146.24l-3,5.66a39.54,39.54,0,0,0-7.31,3l-6.17-1.89-12.18,12.19,1.88,6.17a40.2,40.2,0,0,0-3,7.31l-5.7,3v17.24l5.7,3a39.5,39.5,0,0,0,3,7.31l-1.88,6.17,12.18,12.19,6.17-1.89a40.24,40.24,0,0,0,7.31,3l3,5.65h17.24l3-5.65a40.24,40.24,0,0,0,7.31-3l6.17,1.89,12.19-12.19-1.89-6.17a39.58,39.58,0,0,0,3-7.31l5.69-3V196.15Zm-38.46,36.13a24.49,24.49,0,1,1,24.49-24.49,24.5,24.5,0,0,1-24.49,24.49Z" style="fill:#007CED"></path><path d="M154.86,196.65a8.12,8.12,0,1,0,8.12,8.12h0A8.12,8.12,0,0,0,154.86,196.65Z" style="fill:#263238"></path><path d="M193.32,193.12a39.58,39.58,0,0,0-3-7.31l1.89-6.17L180,167.45l-6.17,1.89a39.54,39.54,0,0,0-7.31-3l-3-5.66H146.24l-3,5.66a39.54,39.54,0,0,0-7.31,3l-6.17-1.89-12.18,12.19,1.88,6.17a40.2,40.2,0,0,0-3,7.31l-5.7,3v17.24l5.7,3a39.5,39.5,0,0,0,3,7.31l-1.88,6.17,12.18,12.19,6.17-1.89a40.24,40.24,0,0,0,7.31,3l3,5.65h17.24l3-5.65a40.24,40.24,0,0,0,7.31-3l6.17,1.89,12.19-12.19-1.89-6.17a39.58,39.58,0,0,0,3-7.31l5.69-3V196.15Zm-38.46,36.13a24.49,24.49,0,1,1,24.49-24.49,24.5,24.5,0,0,1-24.49,24.49Z" style="fill:#fff;opacity:0.4"></path><path d="M154.86,196.65a8.12,8.12,0,1,0,8.12,8.12h0A8.12,8.12,0,0,0,154.86,196.65Z" style="fill:#fff;opacity:0.2"></path><path d="M209,177.49l-6.6-2.72-.24-2.48a15.34,15.34,0,0,1-1.72-1.7l-2.46-.25-2.73-6.59,1.59-1.89a14.09,14.09,0,0,1,0-2.43l-1.59-1.88L198,151l2.46-.24A16.34,16.34,0,0,1,202.2,149l.24-2.47,6.6-2.72,1.88,1.58a16.42,16.42,0,0,1,2.43,0l1.88-1.58,6.6,2.72.23,2.47a17.35,17.35,0,0,1,1.72,1.71l2.46.24,2.72,6.59-1.58,1.88a14.09,14.09,0,0,1,0,2.43l1.58,1.89-2.72,6.59-2.46.25a15.43,15.43,0,0,1-1.72,1.71l-.23,2.47-6.6,2.72-1.88-1.58a16.29,16.29,0,0,1-2.42,0Zm4.78-3,1.71,1.41,5-2.07.2-2.21.24-.18a14.37,14.37,0,0,0,1.93-1.89l.18-.23,2.21-.21,2.07-5L226,162.35v-.29a13.84,13.84,0,0,0,0-2.73V159l1.41-1.72-2.07-5-2.2-.2-.19-.24A13.72,13.72,0,0,0,221,150l-.24-.19-.2-2.2-5-2.08L213.82,147h-.29a12.46,12.46,0,0,0-2.73,0h-.3l-1.71-1.42-5,2.08-.21,2.2-.22.19a13.27,13.27,0,0,0-1.94,1.88l-.19.24-2.21.2-2.09,5,1.42,1.71v.29a12.46,12.46,0,0,0,0,2.73v.3L196.93,164l2.08,5,2.2.21.19.22a13.11,13.11,0,0,0,1.93,1.94l.23.18.21,2.22,5,2.07,1.72-1.41h.29a13.84,13.84,0,0,0,2.73,0Z" style="fill:#263238"></path><path d="M215.09,167.72a7.66,7.66,0,1,1,4.14-10h0a7.65,7.65,0,0,1-4.13,10Z" style="fill:#263238"></path><path d="M160,161.86a.47.47,0,0,1-.47-.47V159a.47.47,0,0,1,.94,0v2.35A.47.47,0,0,1,160,161.86Z" style="fill:#007CED"></path><path d="M160,154.79a.47.47,0,0,1-.47-.47V149.6a.47.47,0,0,1,.94,0v4.72A.47.47,0,0,1,160,154.79Zm0-9.44a.47.47,0,0,1-.47-.47v-4.72a.47.47,0,0,1,.94,0v4.72A.47.47,0,0,1,160,145.35Zm0-9.43a.48.48,0,0,1-.47-.48v-4.71a.47.47,0,1,1,.94,0v4.71A.48.48,0,0,1,160,135.92Zm0-9.47a.44.44,0,0,1-.47-.44v-.07a14.48,14.48,0,0,1,.79-4.72.48.48,0,0,1,.6-.29.46.46,0,0,1,.29.6,13.43,13.43,0,0,0-.74,4.41A.51.51,0,0,1,160,126.45Zm3-8.72a.45.45,0,0,1-.29-.1.47.47,0,0,1-.08-.66,14.48,14.48,0,0,1,3.62-3.23.47.47,0,0,1,.5.8,13.33,13.33,0,0,0-3.38,3A.5.5,0,0,1,163.08,117.73Zm7.85-4.9a.47.47,0,0,1-.1-.93,14.2,14.2,0,0,1,3.12-.34h1.67a.47.47,0,1,1,0,.94H174a13.61,13.61,0,0,0-2.92.32Zm80.19-.33H246.4a.47.47,0,0,1,0-.94h4.72a.47.47,0,1,1,0,.94Zm-9.44,0H237a.47.47,0,1,1,0-.94h4.71a.47.47,0,1,1,0,.94Zm-9.43,0h-4.72a.47.47,0,0,1,0-.94h4.72a.47.47,0,1,1,0,.94Zm-9.44,0h-4.72a.47.47,0,0,1,0-.94h4.72a.47.47,0,1,1,0,.94Zm-9.44,0h-4.72a.47.47,0,0,1,0-.94h4.72a.47.47,0,1,1,0,.94Zm-9.44,0h-4.71a.47.47,0,1,1,0-.94h4.71a.47.47,0,1,1,0,.94Zm-9.43,0h-4.72a.47.47,0,0,1,0-.94h4.72a.47.47,0,1,1,0,.94Zm-9.44,0h-4.72a.47.47,0,0,1,0-.94h4.72a.47.47,0,1,1,0,.94Z" style="fill:#007CED"></path><path d="M258.21,112.5h-2.36a.47.47,0,0,1,0-.94h2.36a.47.47,0,1,1,0,.94Z" style="fill:#007CED"></path></g></svg>