<svg xmlns="http://www.w3.org/2000/svg" viewBox="0 0 500 500"><g id="freepik--Device--inject-7"><path d="M179.66,402.43l-.2,2.3a2.34,2.34,0,0,0,.09.84h0a1.46,1.46,0,0,0,.16.36,3.33,3.33,0,0,0,.24.32,1.59,1.59,0,0,0,.3.27,2,2,0,0,0,1.16.37h82.4a1.9,1.9,0,0,0,.58-.09,2.5,2.5,0,0,0,.38-.15,2.18,2.18,0,0,0,1-1,2.08,2.08,0,0,0,.23-.78l.19-2.21a1.7,1.7,0,0,0-.09-.78,1.66,1.66,0,0,0-.15-.33,1.76,1.76,0,0,0-.64-.63,2.72,2.72,0,0,0-.35-.16,1.84,1.84,0,0,0-.57-.09H243.87a3.8,3.8,0,0,1-.77-.07h0l-.29-.08a.05.05,0,0,1,0,0h0a2.08,2.08,0,0,1-.32-.12,1,1,0,0,1-.28-.14,2.85,2.85,0,0,1-.41-.26,3.32,3.32,0,0,1-.43-.41c-.07-.09-.14-.17-.21-.27l-.14-.2-.05-.08v0a1.59,1.59,0,0,1-.15-.29l-.12-.27a.14.14,0,0,0,0-.06.14.14,0,0,0,0-.07s0,0,0,0a1.05,1.05,0,0,1-.06-.24,1.86,1.86,0,0,1,0-.34,0,0,0,0,1,0,0c0-.1,0-.21,0-.32s0-.21,0-.32V397a3.11,3.11,0,0,1,0-.32c0-.12.05-.22.07-.33h0l8.06-30.92,1.55-5.94,1.21-4.65h-46.8l-2.51,4.65-3.2,5.94-18.2,33.74c-.06.12-.12.24-.19.36a0,0,0,0,1,0,0l-.18.41c-.05.14-.11.27-.16.42l-.09.28A8.46,8.46,0,0,0,179.66,402.43Z" style="fill:#263238"></path><path d="M266.16,402.68l-.19,2.23a2.21,2.21,0,0,1-2.16,2H181.43a2,2,0,0,1-2-2.16l.2-2.3a8.29,8.29,0,0,1,.36-1.81,9.29,9.29,0,0,1,.64-1.49l23.92-44.33h46.8l-10.82,41.51a3.21,3.21,0,0,0-.13.73,3.37,3.37,0,0,0,2.67,3.58,3.14,3.14,0,0,0,.77.08h20.49A1.79,1.79,0,0,1,266.16,402.68Z" style="fill:#fff;opacity:0.2"></path><path d="M178,399.13l23.91-44.34h2.65l-23.92,44.34a8.53,8.53,0,0,0-1,3.3l-.2,2.3a1.94,1.94,0,0,0,2,2.15h-2.65a1.94,1.94,0,0,1-2-2.15l.2-2.3A8.38,8.38,0,0,1,178,399.13Z" style="fill:#263238"></path><polygon points="204.58 354.79 251.37 354.79 248.61 365.39 198.86 365.39 204.58 354.79" style="opacity:0.30000000000000004"></polygon><path d="M125.18,207.88V352.15a7.29,7.29,0,0,0,7.29,7.3H332.14a7.29,7.29,0,0,0,7.29-7.3V207.88a7.29,7.29,0,0,0-7.3-7.3H132.49a7.3,7.3,0,0,0-4.44,1.51,5.27,5.27,0,0,0-.51.43,6.85,6.85,0,0,0-1.26,1.53,6.32,6.32,0,0,0-.6,1.19A7.46,7.46,0,0,0,125.18,207.88Z" style="fill:#263238"></path><path d="M339.43,336.55v15.6a7.3,7.3,0,0,1-7.3,7.3H132.49a7.3,7.3,0,0,1-7.3-7.3v-15.6Z" style="fill:#007CED"></path><path d="M339.43,336.55v15.6a7.3,7.3,0,0,1-7.3,7.3H132.49a7.3,7.3,0,0,1-7.3-7.3v-15.6Z" style="fill:#fff;opacity:0.6000000000000001"></path><path d="M132.62,332.14H332a4,4,0,0,0,4-4V209a4,4,0,0,0-4-4H132.62a4,4,0,0,0-4,4V328.18A4,4,0,0,0,132.62,332.14Z" style="fill:#007CED"></path><path d="M128.07,200.58h4.42a7.3,7.3,0,0,0-7.3,7.3V352.15a7.3,7.3,0,0,0,7.3,7.3h-4.42a7.3,7.3,0,0,1-7.3-7.3V207.88A7.3,7.3,0,0,1,128.07,200.58Z" style="fill:#263238"></path><g style="opacity:0.2"><path d="M128.07,200.58h4.42a7.3,7.3,0,0,0-7.3,7.3V352.15a7.3,7.3,0,0,0,7.3,7.3h-4.42a7.3,7.3,0,0,1-7.3-7.3V207.88A7.3,7.3,0,0,1,128.07,200.58Z" style="fill:#fff"></path></g><path d="M337.18,280.92c-5.14-1-13.28,2.33-14.8,7.33a8,8,0,0,0-3.85-7.76c-2.65-1.53-6.12-2.61-8.56-.77a27.18,27.18,0,0,0-9.06-27.11c-7.82-6.33-19.23-7-28.26-2.59a19.37,19.37,0,0,0-11.34-27.41,82.5,82.5,0,0,0-39.15-3.71c-7.61,1.12-15.37,3.5-20.9,8.84s-7,15-3.28,21.73a24.69,24.69,0,0,0-24.9,5.89,24.38,24.38,0,0,0-5.43,24.83,8.23,8.23,0,0,0-7.85-.3,8,8,0,0,0-4.35,6.43,16.53,16.53,0,0,0-27,.92v44.9H336Z" style="fill:#fff;opacity:0.5"></path><rect x="174.16" y="261.21" width="126.62" height="19.7" rx="9.85" style="fill:#fff"></rect><path d="M183.4,274.83a5.82,5.82,0,1,1,5.82-5.82A5.83,5.83,0,0,1,183.4,274.83Zm0-8.64a2.82,2.82,0,1,0,2.82,2.82A2.83,2.83,0,0,0,183.4,266.19Z" style="fill:#263238"></path><rect x="188.32" y="270.7" width="3" height="9.75" transform="translate(-139.23 214.72) rotate(-44.96)" style="fill:#263238"></rect><g style="opacity:0.1"><polygon points="268.47 204.99 276.13 204.99 292.04 332.14 284.37 332.14 268.47 204.99" style="fill:#fff"></polygon><polygon points="299.79 332.14 283.89 204.99 312.7 204.99 328.6 332.14 299.79 332.14" style="fill:#fff"></polygon></g><path d="M193.87,402.7l-.18,2.11a1.87,1.87,0,0,0,1.89,2.08h68.23a2.21,2.21,0,0,0,2.16-2l.19-2.21a1.78,1.78,0,0,0-1.81-2H243.86a3.16,3.16,0,0,1-.76-.09h-47A2.32,2.32,0,0,0,193.87,402.7Z" style="fill:#fff;opacity:0.2"></path><path d="M180,400.62H243.1a3.34,3.34,0,0,1-2.66-3.58H182Z" style="opacity:0.2"></path><path d="M212.27,249.39l1.38-3.07a10.37,10.37,0,0,0,5.81,1.84c2.41,0,3.39-.81,3.39-1.89,0-3.29-10.23-1-10.23-7.56,0-3,2.41-5.48,7.41-5.48a11.79,11.79,0,0,1,6.11,1.56l-1.26,3.09A9.9,9.9,0,0,0,220,236.5c-2.41,0-3.34.9-3.34,2,0,3.24,10.23,1,10.23,7.46,0,2.94-2.44,5.46-7.47,5.46A12.51,12.51,0,0,1,212.27,249.39Z" style="fill:#263238"></path><path d="M243.31,247.86v3.26H229.69V233.53H243v3.27h-9.25v3.82h8.17v3.17h-8.17v4.07Z" style="fill:#263238"></path><path d="M245.4,242.33c0-5.23,4.07-9.1,9.62-9.1s9.63,3.85,9.63,9.1-4.1,9.1-9.63,9.1S245.4,247.56,245.4,242.33Zm15.13,0A5.51,5.51,0,1,0,255,248,5.37,5.37,0,0,0,260.53,242.33Z" style="fill:#263238"></path><rect x="186.17" y="293.84" width="49.9" height="16.62" rx="3.85" style="fill:#fff;opacity:0.8"></rect><rect x="247.37" y="293.84" width="49.9" height="16.62" rx="3.85" style="fill:#fff;opacity:0.8"></rect><path d="M209.92,210.66l24.79-44a1,1,0,0,1,1.74,0l24.79,44a1,1,0,0,1-.87,1.48H210.8A1,1,0,0,1,209.92,210.66Z" style="fill:#007CED"></path><path d="M209.92,210.66l24.79-44a1,1,0,0,1,1.74,0l24.79,44a1,1,0,0,1-.87,1.48H210.8A1,1,0,0,1,209.92,210.66Z" style="opacity:0.30000000000000004"></path><path d="M223.8,218.73l-1.21-4.94h-4.34l-1.2,4.94A8.82,8.82,0,0,0,223.8,218.73Z" style="fill:#263238"></path><path d="M218.25,213.79l-.28,1.15a8.69,8.69,0,0,0,4.9,0l-.28-1.15Z" style="fill:#fff;opacity:0.2"></path><path d="M217.67,216.18c-.08.32-.16.63-.23.93a10,10,0,0,0,6,0l-.22-.93A14,14,0,0,1,217.67,216.18Z" style="fill:#fff;opacity:0.4"></path><path d="M225,213.44a12,12,0,0,1-9.16,0v-36.7a15.59,15.59,0,0,1,4.58-11.06A15.59,15.59,0,0,1,225,176.74Z" style="fill:#007CED"></path><path d="M215.84,176.74v34.59a13.9,13.9,0,0,0,9.16,0V176.74a15.59,15.59,0,0,0-4.58-11.06A15.59,15.59,0,0,0,215.84,176.74Z" style="fill:#007CED"></path><path d="M215.84,176.74v34.59a13.9,13.9,0,0,0,9.16,0V176.74a15.59,15.59,0,0,0-4.58-11.06A15.59,15.59,0,0,0,215.84,176.74Z" style="fill:#fff;opacity:0.4"></path><path d="M215.84,176.74v26a16.67,16.67,0,0,0,9.16,0v-26a15.59,15.59,0,0,0-4.58-11.06A15.59,15.59,0,0,0,215.84,176.74Z" style="fill:#007CED"></path><path d="M215.84,176.74v26a16.67,16.67,0,0,0,9.16,0v-26a15.59,15.59,0,0,0-4.58-11.06A15.59,15.59,0,0,0,215.84,176.74Z" style="fill:#fff;opacity:0.6000000000000001"></path><path d="M215.84,176.74v13.6a16.58,16.58,0,0,0,9.16,0V176.74a15.59,15.59,0,0,0-4.58-11.06A15.59,15.59,0,0,0,215.84,176.74Z" style="fill:#007CED"></path><path d="M215.84,176.74v13.6a16.58,16.58,0,0,0,9.16,0V176.74a15.59,15.59,0,0,0-4.58-11.06A15.59,15.59,0,0,0,215.84,176.74Z" style="fill:#fff;opacity:0.8"></path><path d="M215.84,176.74v1.59a16.67,16.67,0,0,0,9.16,0v-1.59a15.59,15.59,0,0,0-4.58-11.06A15.59,15.59,0,0,0,215.84,176.74Z" style="fill:#007CED"></path><path d="M215.84,176.74v1.59a16.67,16.67,0,0,0,9.16,0v-1.59a15.59,15.59,0,0,0-4.58-11.06A15.59,15.59,0,0,0,215.84,176.74Z" style="fill:#fff;opacity:0.4"></path><path d="M253.27,218.73l-1.2-4.94h-4.34l-1.21,4.94A8.82,8.82,0,0,0,253.27,218.73Z" style="fill:#263238"></path><path d="M247.73,213.79l-.28,1.15a8.69,8.69,0,0,0,4.9,0l-.28-1.15Z" style="fill:#fff;opacity:0.2"></path><path d="M247.14,216.18c-.07.32-.15.63-.22.93a10,10,0,0,0,6,0l-.23-.93A14,14,0,0,1,247.14,216.18Z" style="fill:#fff;opacity:0.4"></path><path d="M254.48,213.44a12,12,0,0,1-9.16,0v-36.7a15.59,15.59,0,0,1,4.58-11.06,15.59,15.59,0,0,1,4.58,11.06Z" style="fill:#007CED"></path><path d="M245.32,176.74v34.59a13.9,13.9,0,0,0,9.16,0V176.74a15.59,15.59,0,0,0-4.58-11.06A15.59,15.59,0,0,0,245.32,176.74Z" style="fill:#007CED"></path><path d="M245.32,176.74v34.59a13.9,13.9,0,0,0,9.16,0V176.74a15.59,15.59,0,0,0-4.58-11.06A15.59,15.59,0,0,0,245.32,176.74Z" style="fill:#fff;opacity:0.4"></path><path d="M245.32,176.74v26a16.67,16.67,0,0,0,9.16,0v-26a15.59,15.59,0,0,0-4.58-11.06A15.59,15.59,0,0,0,245.32,176.74Z" style="fill:#007CED"></path><path d="M245.32,176.74v26a16.67,16.67,0,0,0,9.16,0v-26a15.59,15.59,0,0,0-4.58-11.06A15.59,15.59,0,0,0,245.32,176.74Z" style="fill:#fff;opacity:0.6000000000000001"></path><path d="M245.32,176.74v13.6a16.58,16.58,0,0,0,9.16,0V176.74a15.59,15.59,0,0,0-4.58-11.06A15.59,15.59,0,0,0,245.32,176.74Z" style="fill:#007CED"></path><path d="M245.32,176.74v13.6a16.58,16.58,0,0,0,9.16,0V176.74a15.59,15.59,0,0,0-4.58-11.06A15.59,15.59,0,0,0,245.32,176.74Z" style="fill:#fff;opacity:0.8"></path><path d="M245.32,176.74v1.59a16.67,16.67,0,0,0,9.16,0v-1.59a15.59,15.59,0,0,0-4.58-11.06A15.59,15.59,0,0,0,245.32,176.74Z" style="fill:#007CED"></path><path d="M245.32,176.74v1.59a16.67,16.67,0,0,0,9.16,0v-1.59a15.59,15.59,0,0,0-4.58-11.06A15.59,15.59,0,0,0,245.32,176.74Z" style="fill:#fff;opacity:0.4"></path><path d="M240.61,221.56l-2-8h-7l-1.95,8A14.15,14.15,0,0,0,240.61,221.56Z" style="fill:#263238"></path><path d="M231.66,213.59s-.29,1.2-.46,1.86a14.13,14.13,0,0,0,7.92,0l-.46-1.87Z" style="fill:#fff;opacity:0.2"></path><path d="M230.71,217.46l-.36,1.5a16.26,16.26,0,0,0,9.62,0l-.36-1.5A23,23,0,0,1,230.71,217.46Z" style="fill:#fff;opacity:0.4"></path><path d="M242.56,213a19.22,19.22,0,0,1-14.8,0V153.78a25.17,25.17,0,0,1,7.4-17.85,25.17,25.17,0,0,1,7.4,17.85Z" style="fill:#007CED"></path><path d="M227.76,153.78v55.85a22.61,22.61,0,0,0,14.8,0V153.78a25.17,25.17,0,0,0-7.4-17.85A25.17,25.17,0,0,0,227.76,153.78Z" style="fill:#007CED"></path><path d="M227.76,153.78v55.85a22.61,22.61,0,0,0,14.8,0V153.78a25.17,25.17,0,0,0-7.4-17.85A25.17,25.17,0,0,0,227.76,153.78Z" style="fill:#fff;opacity:0.4"></path><path d="M227.76,153.78v41.94a27,27,0,0,0,14.8,0V153.78a25.17,25.17,0,0,0-7.4-17.85A25.17,25.17,0,0,0,227.76,153.78Z" style="fill:#007CED"></path><path d="M227.76,153.78v41.94a27,27,0,0,0,14.8,0V153.78a25.17,25.17,0,0,0-7.4-17.85A25.17,25.17,0,0,0,227.76,153.78Z" style="fill:#fff;opacity:0.6000000000000001"></path><path d="M227.76,153.78v22a27,27,0,0,0,14.8,0v-22a25.17,25.17,0,0,0-7.4-17.85A25.17,25.17,0,0,0,227.76,153.78Z" style="fill:#007CED"></path><path d="M227.76,153.78v22a27,27,0,0,0,14.8,0v-22a25.17,25.17,0,0,0-7.4-17.85A25.17,25.17,0,0,0,227.76,153.78Z" style="fill:#fff;opacity:0.8"></path><path d="M227.76,153.78v2.57a27,27,0,0,0,14.8,0v-2.57a25.17,25.17,0,0,0-7.4-17.85A25.17,25.17,0,0,0,227.76,153.78Z" style="fill:#007CED"></path><path d="M227.76,153.78v2.57a27,27,0,0,0,14.8,0v-2.57a25.17,25.17,0,0,0-7.4-17.85A25.17,25.17,0,0,0,227.76,153.78Z" style="fill:#fff;opacity:0.1"></path><path d="M239.47,165.63a4.31,4.31,0,1,1-4.31-4.3A4.31,4.31,0,0,1,239.47,165.63Z" style="fill:#007CED"></path><path d="M235.16,169.94a4.29,4.29,0,0,1-4.29-4c0,.11,0,.22,0,.32a4.31,4.31,0,0,0,8.62,0c0-.1,0-.21,0-.32A4.3,4.3,0,0,1,235.16,169.94Z" style="fill:#007CED"></path><path d="M235.16,169.94a4.29,4.29,0,0,1-4.29-4c0,.11,0,.22,0,.32a4.31,4.31,0,0,0,8.62,0c0-.1,0-.21,0-.32A4.3,4.3,0,0,1,235.16,169.94Z" style="opacity:0.30000000000000004"></path><circle cx="235.16" cy="165.63" r="3.05" style="fill:#fff"></circle><path d="M235,168.66l1.25-5.86a2.88,2.88,0,0,0-1-.2L234,168.45A2.85,2.85,0,0,0,235,168.66Z" style="fill:#007CED"></path><path d="M236.14,168.51l1.08-5.11a3,3,0,0,0-.45-.34l-1.19,5.58A3.5,3.5,0,0,0,236.14,168.51Z" style="fill:#007CED"></path><g style="opacity:0.7000000000000001"><path d="M235,168.66l1.25-5.86a2.88,2.88,0,0,0-1-.2L234,168.45A2.85,2.85,0,0,0,235,168.66Z" style="fill:#fff"></path><path d="M236.14,168.51l1.08-5.11a3,3,0,0,0-.45-.34l-1.19,5.58A3.5,3.5,0,0,0,236.14,168.51Z" style="fill:#fff"></path></g></g><g id="freepik--Speedometer--inject-7"><path d="M364.09,177.94h0v-.11A.41.41,0,0,1,364.09,177.94Z" style="fill:#007CED"></path><path d="M317,165.28a25.78,25.78,0,0,0-7.25,11.64l-1.83,0A30.33,30.33,0,0,1,313.39,163Z" style="fill:#007CED"></path><path d="M317,165.28a25.78,25.78,0,0,0-7.25,11.64l-1.83,0A30.33,30.33,0,0,1,313.39,163Z" style="fill:#fff;opacity:0.6000000000000001"></path><path d="M327.6,159.29a25.84,25.84,0,0,0-10.6,6L313.39,163a32.17,32.17,0,0,1,11.32-9.83Z" style="fill:#007CED"></path><path d="M327.6,159.29a25.84,25.84,0,0,0-10.6,6L313.39,163a32.17,32.17,0,0,1,11.32-9.83Z" style="fill:#fff;opacity:0.5"></path><path d="M338.83,149.8l-.89,8.93a22.21,22.21,0,0,0-3.87-.33,24.11,24.11,0,0,0-6.47.89l-2.89-6.1a29.68,29.68,0,0,1,13.7-3.39Z" style="fill:#007CED"></path><path d="M338.83,149.8l-.89,8.93a22.21,22.21,0,0,0-3.87-.33,24.11,24.11,0,0,0-6.47.89l-2.89-6.1a29.68,29.68,0,0,1,13.7-3.39Z" style="fill:#fff;opacity:0.4"></path><path d="M352.21,153.59l-5.83,8.55a21,21,0,0,0-8.44-3.41l.89-8.93A26.17,26.17,0,0,1,352.21,153.59Z" style="fill:#007CED"></path><path d="M352.21,153.59l-5.83,8.55a21,21,0,0,0-8.44-3.41l.89-8.93A26.17,26.17,0,0,1,352.21,153.59Z" style="fill:#fff;opacity:0.30000000000000004"></path><path d="M361.46,163.67l-9.1,4.87a20.43,20.43,0,0,0-6-6.4l5.83-8.55A25,25,0,0,1,361.46,163.67Z" style="fill:#007CED"></path><path d="M361.46,163.67l-9.1,4.87a20.43,20.43,0,0,0-6-6.4l5.83-8.55A25,25,0,0,1,361.46,163.67Z" style="fill:#fff;opacity:0.2"></path><path d="M364.12,177.57l-8.9-.1a21.31,21.31,0,0,0-2.86-8.93l9.1-4.87A26.43,26.43,0,0,1,364.12,177.57Z" style="fill:#007CED"></path><path d="M364.12,177.57l-8.9-.1a21.31,21.31,0,0,0-2.86-8.93l9.1-4.87A26.43,26.43,0,0,1,364.12,177.57Z" style="fill:#fff;opacity:0.1"></path><path d="M364.1,177.83a.41.41,0,0,1,0,.11,33.6,33.6,0,0,1-2.37,9.1l-7.21-1.63.58-2.75c.05-.36.1-.72.13-1.08h0l0-.22h0a21.94,21.94,0,0,0,0-3.89l8.9.1c0,.06,0,.1,0,.15A.37.37,0,0,1,364.1,177.83Z" style="fill:#007CED"></path><path d="M309,186.47l-.53.12c-.17-.69-.31-1.39-.43-2.1a27.87,27.87,0,0,1-.24-6.55h0v-.11a.45.45,0,0,1,0-.11c0-.27.05-.55.09-.82l1.83,0a24.21,24.21,0,0,0-.86,4.44s0,.07,0,.11,0,.07,0,.11a23.88,23.88,0,0,0-.05,2.67C308.85,185,308.91,185.74,309,186.47Z" style="fill:#007CED"></path><path d="M309,186.47l-.53.12c-.17-.69-.31-1.39-.43-2.1a27.87,27.87,0,0,1-.24-6.55h0v-.11a.45.45,0,0,1,0-.11c0-.27.05-.55.09-.82l1.83,0a24.21,24.21,0,0,0-.86,4.44s0,.07,0,.11,0,.07,0,.11a23.88,23.88,0,0,0-.05,2.67C308.85,185,308.91,185.74,309,186.47Z" style="fill:#fff;opacity:0.7000000000000001"></path><path d="M363.52,185l-.76,1.88-1.54-.34-14.35-3.25-6.18-1.4a8.25,8.25,0,0,0,1.06-1.81,7.52,7.52,0,0,0,.56-2.37l13.7,4.71h0Z" style="fill:#263238"></path><path d="M342.31,177.73a7.72,7.72,0,0,1-1.62,4.18l-5.55-1.26,1.75-4.78Z" style="fill:#263238"></path><path d="M342.31,177.73a7.72,7.72,0,0,1-1.62,4.18,8,8,0,0,1-2.54,2.13c-3.57,1.91-7.78.71-9.39-2.7a7.52,7.52,0,0,1,3.54-9.63c3.57-1.91,7.78-.7,9.4,2.7A6.64,6.64,0,0,1,342.31,177.73Z" style="fill:#007CED"></path></g><g id="freepik--Number--inject-7"><path d="M114.48,173.5h5.73v4.8h-6.3l-.88,7h-5l.88-7h-6.47l-.88,7H96.66l.88-7H91.77v-4.8h6.34l.92-7.13H93.27v-4.8h6.34l.88-7h4.93l-.88,7H111l.88-7h4.93l-.88,7h5.72l0,4.8h-6.34Zm-5,0,.92-7.13H104L103,173.5Z" style="fill:#007CED"></path><path d="M136.18,154.52v30.82h-7.13V160.25h-6.16v-5.73Z" style="fill:#007CED"></path></g><g id="freepik--Symbol--inject-7"><rect x="60.15" y="282.69" width="49.31" height="33.95" style="fill:#263238"></rect><rect x="60.15" y="282.69" width="49.31" height="3.11" style="fill:#007CED"></rect><path d="M69.18,301.47l8.07,4.47a2.66,2.66,0,0,1,.8.6,1.08,1.08,0,0,1,.2.68,1.26,1.26,0,0,1-.37.91,1.2,1.2,0,0,1-.88.38,2.36,2.36,0,0,1-1-.36l-10.4-5.79a1,1,0,0,1,0-1.78L76,294.79a2.47,2.47,0,0,1,1-.35,1.28,1.28,0,0,1,1.26,1.27,1,1,0,0,1-.2.68,2.5,2.5,0,0,1-.8.61Z" style="fill:#fff"></path><path d="M89.93,293.14l-8,17.19a2.35,2.35,0,0,1-.55.84,1.17,1.17,0,0,1-.76.26,1.23,1.23,0,0,1-.88-.37,1.11,1.11,0,0,1-.37-.82,2.64,2.64,0,0,1,.29-1l8-17.18a2.5,2.5,0,0,1,.54-.84,1.24,1.24,0,0,1,1.63.1,1.1,1.1,0,0,1,.37.82A2.64,2.64,0,0,1,89.93,293.14Z" style="fill:#fff"></path><path d="M100,301.47,91.9,297a2.45,2.45,0,0,1-.81-.61,1.1,1.1,0,0,1-.2-.68,1.19,1.19,0,0,1,.38-.89,1.2,1.2,0,0,1,.88-.38,2.42,2.42,0,0,1,1,.35l10.4,5.79a1,1,0,0,1,0,1.78l-10.4,5.79a2.33,2.33,0,0,1-1,.36,1.23,1.23,0,0,1-.89-.38,1.3,1.3,0,0,1-.37-.91,1.14,1.14,0,0,1,.2-.68,2.61,2.61,0,0,1,.81-.6Z" style="fill:#fff"></path></g></svg>