<svg xmlns="http://www.w3.org/2000/svg" viewBox="0 0 500 500"><g id="freepik--Screen--inject-1"><rect x="127.2" y="371.85" width="67.15" height="43.67" style="fill:#407BFF"></rect><rect x="127.2" y="371.85" width="67.15" height="43.67" style="fill:#fff;opacity:0.6000000000000001;isolation:isolate"></rect><rect x="129.66" y="380.04" width="62.24" height="33.3" style="fill:#407BFF"></rect><rect x="134.73" y="385.01" width="46.04" height="1.43" style="fill:#fff"></rect><rect x="134.73" y="389.4" width="22.09" height="1.43" style="fill:#fff"></rect><rect x="134.73" y="393.79" width="27.82" height="1.43" style="fill:#fff"></rect><rect x="134.73" y="398.17" width="9.8" height="1.43" style="fill:#fff"></rect><rect x="134.73" y="402.56" width="6.35" height="1.43" style="fill:#fff"></rect></g><g id="freepik--Device--inject-1"><polygon points="277.33 416.24 222.67 416.24 231.92 343.57 268.08 343.57 277.33 416.24" style="fill:#407BFF"></polygon><polygon points="277.33 416.24 222.67 416.24 229 366.52 231.93 343.57 268.07 343.57 272.39 377.43 277.33 416.24" style="fill:#fff;opacity:0.6000000000000001"></polygon><polygon points="272.39 377.43 229 366.52 231.93 343.57 268.07 343.57 272.39 377.43" style="opacity:0.1;isolation:isolate"></polygon><path d="M378.87,164.38H121.13a6.59,6.59,0,0,0-6.59,6.6V345.46a6.59,6.59,0,0,0,6.59,6.59H378.87a6.59,6.59,0,0,0,6.59-6.59V171A6.59,6.59,0,0,0,378.87,164.38Z" style="fill:#407BFF"></path><path d="M378.87,164.38H121.13a6.59,6.59,0,0,0-6.59,6.6V345.46a6.59,6.59,0,0,0,6.59,6.59H378.87a6.59,6.59,0,0,0,6.59-6.59V171A6.59,6.59,0,0,0,378.87,164.38Z" style="fill:#fff;opacity:0.7000000000000001"></path><rect x="123.22" y="170.84" width="253.57" height="168.25" style="fill:#407BFF"></rect><rect x="203.05" y="410.78" width="93.89" height="5.37" rx="1.04" style="fill:#407BFF"></rect><rect x="203.05" y="410.78" width="93.89" height="5.37" rx="1.04" style="fill:#fff;opacity:0.7000000000000001"></rect><rect x="123.22" y="171" width="253.57" height="25.08" style="opacity:0.2;isolation:isolate"></rect><rect x="123.22" y="196.38" width="108.66" height="142.71" style="fill:#fff;opacity:0.4"></rect><polyline points="337.76 232.78 337.76 235.28 335.26 235.28" style="fill:none;stroke:#fff;stroke-miterlimit:10"></polyline><line x1="329.98" y1="235.28" x2="248.08" y2="235.28" style="fill:none;stroke:#fff;stroke-miterlimit:10;stroke-dasharray:5.283740043640137,5.283740043640137"></line><polyline points="245.44 235.28 242.94 235.28 242.94 232.78" style="fill:none;stroke:#fff;stroke-miterlimit:10"></polyline><line x1="242.94" y1="228.25" x2="242.94" y2="185.22" style="fill:none;stroke:#fff;stroke-miterlimit:10;stroke-dasharray:4.529409885406494,4.529409885406494"></line><polyline points="242.94 182.96 242.94 180.46 245.44 180.46" style="fill:none;stroke:#fff;stroke-miterlimit:10"></polyline><line x1="250.72" y1="180.46" x2="332.62" y2="180.46" style="fill:none;stroke:#fff;stroke-miterlimit:10;stroke-dasharray:5.283740043640137,5.283740043640137"></line><polyline points="335.26 180.46 337.76 180.46 337.76 182.96" style="fill:none;stroke:#fff;stroke-miterlimit:10"></polyline><line x1="337.76" y1="187.49" x2="337.76" y2="230.52" style="fill:none;stroke:#fff;stroke-miterlimit:10;stroke-dasharray:4.529409885406494,4.529409885406494"></line><rect x="336.18" y="178.87" width="3.17" height="3.17" style="fill:#407BFF;stroke:#fff;stroke-miterlimit:10"></rect><rect x="336.18" y="233.7" width="3.17" height="3.17" style="fill:#407BFF;stroke:#fff;stroke-miterlimit:10"></rect><rect x="241.35" y="178.87" width="3.17" height="3.17" style="fill:#407BFF;stroke:#fff;stroke-miterlimit:10"></rect><rect x="241.35" y="233.7" width="3.17" height="3.17" style="fill:#407BFF;stroke:#fff;stroke-miterlimit:10"></rect><rect x="288.77" y="178.87" width="3.17" height="3.17" style="fill:#407BFF;stroke:#fff;stroke-miterlimit:10"></rect><rect x="288.77" y="233.7" width="3.17" height="3.17" style="fill:#407BFF;stroke:#fff;stroke-miterlimit:10"></rect><rect x="336.18" y="206.28" width="3.17" height="3.17" style="fill:#407BFF;stroke:#fff;stroke-miterlimit:10"></rect><rect x="241.35" y="206.28" width="3.17" height="3.17" style="fill:#407BFF;stroke:#fff;stroke-miterlimit:10"></rect><rect x="304.05" y="198.87" width="26.99" height="9.99" rx="1.89" style="fill:#fff;opacity:0.7000000000000001"></rect><rect x="264.05" y="198.87" width="26.99" height="9.99" rx="1.89" style="fill:#fff;opacity:0.7000000000000001"></rect><rect x="212.56" y="320.46" width="26.99" height="9.99" rx="1.89" style="fill:#fff;opacity:0.7000000000000001"></rect><line x1="360.05" y1="179.92" x2="368.49" y2="179.92" style="fill:none;stroke:#fff;stroke-linecap:round;stroke-linejoin:round;stroke-width:1.5px"></line><line x1="360.05" y1="183.92" x2="368.49" y2="183.92" style="fill:none;stroke:#fff;stroke-linecap:round;stroke-linejoin:round;stroke-width:1.5px"></line><line x1="360.05" y1="187.92" x2="368.49" y2="187.92" style="fill:none;stroke:#fff;stroke-linecap:round;stroke-linejoin:round;stroke-width:1.5px"></line><rect x="140.41" y="218.5" width="85.05" height="85.05" style="fill:#fff;opacity:0.5"></rect><line x1="176.01" y1="225.45" x2="176.01" y2="298.82" style="fill:none;stroke:#407BFF;stroke-miterlimit:10"></line><path d="M212.69,298.82h0A36.69,36.69,0,0,1,176,262.13h0a36.68,36.68,0,0,1,36.68-36.68h0" style="fill:none;stroke:#407BFF;stroke-miterlimit:10"></path><rect x="211.11" y="223.87" width="3.17" height="3.17" style="fill:#fff;stroke:#407BFF;stroke-miterlimit:10"></rect><rect x="211.11" y="297.23" width="3.17" height="3.17" style="fill:#fff;stroke:#407BFF;stroke-miterlimit:10"></rect><rect x="174.43" y="260.55" width="3.17" height="3.17" style="fill:#fff;stroke:#407BFF;stroke-miterlimit:10"></rect><path d="M176.83,225.45a.82.82,0,1,1-.82-.82A.83.83,0,0,1,176.83,225.45Z" style="fill:#fff;stroke:#407BFF;stroke-miterlimit:10"></path><path d="M176.83,298.82A.82.82,0,1,1,176,298,.82.82,0,0,1,176.83,298.82Z" style="fill:#fff;stroke:#407BFF;stroke-miterlimit:10"></path><path d="M316.93,321.67H291.18a7.44,7.44,0,0,1-7.44-7.44h0a7.44,7.44,0,0,1,7.44-7.44h25.75a7.44,7.44,0,0,1,7.44,7.44h0A7.44,7.44,0,0,1,316.93,321.67Z" style="fill:#fff;opacity:0.7000000000000001"></path><path d="M339.55,258.22H260a1.63,1.63,0,0,1-1.63-1.63h0A1.62,1.62,0,0,1,260,255h79.54a1.62,1.62,0,0,1,1.63,1.62h0A1.63,1.63,0,0,1,339.55,258.22Z" style="fill:#fff;opacity:0.7000000000000001"></path><path d="M339.55,270.09H260a1.62,1.62,0,0,1-1.63-1.62h0a1.63,1.63,0,0,1,1.63-1.63h79.54a1.63,1.63,0,0,1,1.63,1.63h0A1.62,1.62,0,0,1,339.55,270.09Z" style="fill:#fff;opacity:0.7000000000000001"></path><path d="M339.55,282H290a1.63,1.63,0,0,1-1.63-1.62h0a1.63,1.63,0,0,1,1.63-1.63h49.54a1.63,1.63,0,0,1,1.63,1.63h0A1.63,1.63,0,0,1,339.55,282Z" style="fill:#fff;opacity:0.7000000000000001"></path><rect x="131.23" y="177.95" width="5.62" height="5.62" style="opacity:0.4;isolation:isolate"></rect><rect x="142.15" y="177.95" width="5.62" height="5.62" rx="1.44" style="opacity:0.4;isolation:isolate"></rect><rect x="153.08" y="177.95" width="5.62" height="5.62" rx="2.57" style="opacity:0.4;isolation:isolate"></rect><path d="M148.45,316.5v-2.19l-1.12-.1a6.18,6.18,0,0,0-.84-2l.72-.87-1.55-1.55-.87.72a6.18,6.18,0,0,0-2-.84l-.1-1.12h-2.19l-.11,1.12a6.22,6.22,0,0,0-2,.84l-.87-.72-1.55,1.55.72.87a5.78,5.78,0,0,0-.84,2l-1.13.1v2.19l1.13.11a5.81,5.81,0,0,0,.84,2l-.72.88,1.55,1.54.87-.72a5.81,5.81,0,0,0,2,.84l.11,1.13h2.19l.1-1.13a5.78,5.78,0,0,0,2-.84l.87.72,1.55-1.54-.72-.88a6,6,0,0,0,.84-2Zm-6.89,1.87a3,3,0,1,1,3-3A3,3,0,0,1,141.56,318.37Z" style="fill:#fff;opacity:0.9"></path><path d="M157.33,322.68V321l-.88-.09a4.61,4.61,0,0,0-.66-1.58l.56-.69-1.21-1.21-.68.57a4.66,4.66,0,0,0-1.59-.66l-.08-.89h-1.72l-.08.89a4.66,4.66,0,0,0-1.59.66l-.68-.57-1.22,1.21.57.69a4.61,4.61,0,0,0-.66,1.58l-.88.09v1.71l.88.09a4.61,4.61,0,0,0,.66,1.58l-.57.69,1.22,1.21.68-.57a4.66,4.66,0,0,0,1.59.66l.08.88h1.72l.08-.88a4.66,4.66,0,0,0,1.59-.66l.68.57,1.21-1.21-.56-.69a4.61,4.61,0,0,0,.66-1.58Zm-5.4,1.47a2.33,2.33,0,1,1,2.32-2.33A2.32,2.32,0,0,1,151.93,324.15Z" style="fill:#fff;opacity:0.6000000000000001"></path><path d="M148.45,327.55v-1.44l-.74-.07a3.9,3.9,0,0,0-.55-1.33l.48-.57-1-1-.58.47a3.9,3.9,0,0,0-1.33-.55l-.07-.74H143.2l-.07.74a3.9,3.9,0,0,0-1.33.55l-.58-.47-1,1,.48.57a3.9,3.9,0,0,0-.55,1.33l-.75.07v1.44l.75.07a3.87,3.87,0,0,0,.55,1.34l-.48.57,1,1,.58-.48a3.73,3.73,0,0,0,1.33.56l.07.74h1.44l.07-.74a3.73,3.73,0,0,0,1.33-.56l.58.48,1-1-.48-.57a3.87,3.87,0,0,0,.55-1.34Zm-4.53,1.23a1.95,1.95,0,1,1,2-1.95A1.95,1.95,0,0,1,143.92,328.78Z" style="fill:#fff;opacity:0.4"></path><polygon points="337.18 179.89 341.42 191.23 348.51 184.13 337.18 179.89" style="fill:#407BFF"></polygon><rect x="343.85" y="185.2" width="2.24" height="4.97" transform="translate(-31.67 298.9) rotate(-45)" style="fill:#407BFF"></rect><polygon points="348.51 184.13 337.18 179.89 341.42 191.23 344.18 188.47 345.93 190.23 347.51 188.65 345.76 186.89 348.51 184.13" style="fill:#fff;opacity:0.4"></polygon><path d="M163.46,220.42l10.67,4-5.59-5.59a1.09,1.09,0,0,1-1.31-.17,1.1,1.1,0,0,1,1.56-1.56,1.09,1.09,0,0,1,.17,1.31l5.59,5.59-4-10.67-3.54.78-.13-1.27-.67-.67-3.92,3.92.67.67,1.28.13Z" style="fill:#263238"></path><path d="M163.46,220.42l10.67,4-5.59-5.59a1.09,1.09,0,0,1-1.31-.17,1.1,1.1,0,0,1,1.56-1.56,1.09,1.09,0,0,1,.17,1.31l5.59,5.59-4-10.67-3.54.78-.13-1.27-.67-.67-3.92,3.92.67.67,1.28.13Z" style="fill:#fff;opacity:0.2"></path><g style="opacity:0.1"><polygon points="160.3 170.84 122.72 311.26 122.72 170.84 160.3 170.84" style="fill:#fff"></polygon><polygon points="202.71 170.84 157.68 339.09 126.66 339.09 171.68 170.84 202.71 170.84" style="fill:#fff"></polygon><polygon points="247.81 170.84 202.78 339.09 188.75 339.09 233.78 170.84 247.81 170.84" style="fill:#fff"></polygon><polygon points="289.34 170.84 244.31 339.09 239.29 339.09 284.32 170.84 289.34 170.84" style="fill:#fff"></polygon></g></g></svg>
