<svg xmlns="http://www.w3.org/2000/svg" viewBox="0 0 500 500"><g id="freepik--Device--inject-18"><path d="M344.38,412.66V416a.75.75,0,0,1-.75.75H250a4.89,4.89,0,0,1-4.53-6.71l29.68-73.49,47.95.33-1.64,9.54L310.87,408.1a3.27,3.27,0,0,0,3.22,3.82h29.54A.74.74,0,0,1,344.38,412.66Z" style="fill:#263238"></path><path d="M344.38,412.66V416a.75.75,0,0,1-.75.75H250a4.89,4.89,0,0,1-4.53-6.71l18.4-45.55,11.28-27.94,47.95.33-1.64,9.54-4.6,26.84-6,34.87a3.27,3.27,0,0,0,3.22,3.82h29.54A.74.74,0,0,1,344.38,412.66Z" style="fill:#fff;opacity:0.6000000000000001"></path><path d="M314.09,411.92H253.16a2.14,2.14,0,0,1-2-3l26-62.57h44.25L310.87,408.1A3.27,3.27,0,0,0,314.09,411.92Z" style="isolation:isolate;opacity:0.2"></path><polygon points="323.09 336.85 321.45 346.39 316.85 373.23 263.86 364.46 275.13 336.52 323.09 336.85" style="isolation:isolate;opacity:0.1"></polygon><path d="M416.33,199.86h-222a5.68,5.68,0,0,0-5.68,5.68V355.83a5.69,5.69,0,0,0,5.68,5.68h222a5.68,5.68,0,0,0,5.68-5.68V205.54A5.68,5.68,0,0,0,416.33,199.86Z" style="fill:#263238"></path><path d="M416.33,199.86h-222a5.68,5.68,0,0,0-5.68,5.68V355.83a5.69,5.69,0,0,0,5.68,5.68h222a5.68,5.68,0,0,0,5.68-5.68V205.54A5.68,5.68,0,0,0,416.33,199.86Z" style="fill:#fff;opacity:0.7000000000000001"></path><path d="M199,361.5h-4.71a5.67,5.67,0,0,1-5.67-5.67V205.54a5.67,5.67,0,0,1,5.67-5.68H199a5.68,5.68,0,0,0-5.68,5.68V355.83A5.67,5.67,0,0,0,199,361.5Z" style="isolation:isolate;opacity:0.2"></path><rect x="198.48" y="205.42" width="218.41" height="144.92" style="fill:#407BFF"></rect><rect x="198.48" y="205.42" width="218.41" height="12.95" style="isolation:isolate;opacity:0.4"></rect><path d="M234.15,212.59H205.89a.91.91,0,0,1-.91-.91h0a.91.91,0,0,1,.91-.91h28.26a.91.91,0,0,1,.91.91h0A.91.91,0,0,1,234.15,212.59Z" style="fill:#fff"></path><path d="M318.61,212.59H302.42a.9.9,0,0,1-.9-.91h0a.9.9,0,0,1,.9-.91h16.19a.91.91,0,0,1,.91.91h0A.91.91,0,0,1,318.61,212.59Z" style="fill:#fff"></path><path d="M344.47,212.59H328.28a.91.91,0,0,1-.91-.91h0a.91.91,0,0,1,.91-.91h16.19a.91.91,0,0,1,.91.91h0A.91.91,0,0,1,344.47,212.59Z" style="fill:#fff"></path><path d="M370.33,212.59H354.14a.91.91,0,0,1-.91-.91h0a.91.91,0,0,1,.91-.91h16.19a.91.91,0,0,1,.91.91h0A.91.91,0,0,1,370.33,212.59Z" style="fill:#fff"></path><polygon points="405.6 211.08 408.61 214.1 411.62 211.08 405.6 211.08" style="fill:#fff"></polygon><path d="M375.59,205.42v13h25v-13Zm20.59,7.17H380a.91.91,0,0,1,0-1.82h16.19a.91.91,0,0,1,0,1.82Z" style="fill:#fff"></path><path d="M291,268.6H211a.91.91,0,0,1-.91-.91h0a.91.91,0,0,1,.91-.91h80a.91.91,0,0,1,.91.91h0A.91.91,0,0,1,291,268.6Z" style="fill:#fff"></path><path d="M291,273.83H211a.91.91,0,0,1-.91-.91h0a.9.9,0,0,1,.91-.9h80a.9.9,0,0,1,.91.9h0A.91.91,0,0,1,291,273.83Z" style="fill:#fff"></path><path d="M282.34,279.07H211a.91.91,0,0,1-.91-.91h0a.91.91,0,0,1,.91-.91h71.35a.91.91,0,0,1,.91.91h0A.91.91,0,0,1,282.34,279.07Z" style="fill:#fff"></path><path d="M291,284.3H211a.91.91,0,0,1-.91-.91h0a.91.91,0,0,1,.91-.91h80a.91.91,0,0,1,.91.91h0A.91.91,0,0,1,291,284.3Z" style="fill:#fff"></path><path d="M282.34,289.53H211a.91.91,0,0,1-.91-.91h0a.9.9,0,0,1,.91-.9h71.35a.9.9,0,0,1,.91.9h0A.91.91,0,0,1,282.34,289.53Z" style="fill:#fff"></path><path d="M247.87,294.77H211a.91.91,0,0,1-.91-.91h0A.91.91,0,0,1,211,293h36.88a.9.9,0,0,1,.9.91h0A.9.9,0,0,1,247.87,294.77Z" style="fill:#fff"></path><path d="M272.21,249.77H212a1.94,1.94,0,0,1-1.94-1.94h0A1.93,1.93,0,0,1,212,245.9h60.19a1.92,1.92,0,0,1,1.93,1.93h0A1.93,1.93,0,0,1,272.21,249.77Z" style="fill:#fff"></path><path d="M298.06,257.7H212a1.94,1.94,0,0,1-1.94-1.94h0a1.93,1.93,0,0,1,1.94-1.93h86a1.93,1.93,0,0,1,1.94,1.93h0A1.94,1.94,0,0,1,298.06,257.7Z" style="fill:#fff"></path><rect x="210.08" y="303.47" width="40.89" height="9.95" rx="2.36" style="isolation:isolate;opacity:0.4"></rect><polygon points="243.41 306.33 243.41 310.56 247.99 308.44 243.41 306.33" style="fill:#fff"></polygon><path d="M334.48,248.7c17.26.38,12.56,35-9,32.86S316,248.3,334.48,248.7Z" style="isolation:isolate;opacity:0.2"></path><path d="M353.73,268.76c.25-.4.53-.8.83-1.2,6.09-8.18,23.4-11.45,32.41-7.19,14.15,6.7,19.89,23.85,14.29,39.89a37.36,37.36,0,0,1-14,18.15A56.5,56.5,0,0,1,349.75,329c-9.28-.86-17.19-2.71-23.12-7a14.94,14.94,0,0,1-5.34-6.81,15.73,15.73,0,0,1,.75-11.78c1.72-3.52,4.86-5.75,7.95-7.43,4.21-2.3,8.71-4.57,12.82-8.48a35.66,35.66,0,0,0,8.06-12.51A40.22,40.22,0,0,1,353.73,268.76Z" style="isolation:isolate;opacity:0.2"></path><path d="M357.61,305.79c-.8,3-5.63,4.4-10.78,3s-8.66-4.93-7.85-8,5.63-4.4,10.77-3S358.42,302.75,357.61,305.79Z" style="fill:#263238"></path><path d="M364.31,296.77a2.77,2.77,0,0,0,1.32-1.6c.79-3-4.91-7.09-12.75-9.16s-14.82-1.34-15.61,1.65a2.73,2.73,0,0,0,.36,2,2.27,2.27,0,0,0-.5.89,2.76,2.76,0,0,0,.38,2,2.18,2.18,0,0,0-.51.91,2.62,2.62,0,0,0,.4,2,2.12,2.12,0,0,0-.54.92,2.55,2.55,0,0,0,.44,2,2,2,0,0,0-.57.93c-.66,2.48,4.08,5.89,10.59,7.62s12.33,1.11,13-1.37a2,2,0,0,0,0-1.09,2.57,2.57,0,0,0,1.37-1.52,2.05,2.05,0,0,0,0-1.07A2.63,2.63,0,0,0,363,300.4a2.19,2.19,0,0,0,0-1,2.68,2.68,0,0,0,1.33-1.57A2.15,2.15,0,0,0,364.31,296.77Z" style="fill:#263238"></path><path d="M364.31,296.77a2.77,2.77,0,0,0,1.32-1.6c.79-3-4.91-7.09-12.75-9.16s-14.82-1.34-15.61,1.65a2.73,2.73,0,0,0,.36,2,2.27,2.27,0,0,0-.5.89,2.76,2.76,0,0,0,.38,2,2.18,2.18,0,0,0-.51.91,2.62,2.62,0,0,0,.4,2,2.12,2.12,0,0,0-.54.92,2.55,2.55,0,0,0,.44,2,2,2,0,0,0-.57.93c-.66,2.48,4.08,5.89,10.59,7.62s12.33,1.11,13-1.37a2,2,0,0,0,0-1.09,2.57,2.57,0,0,0,1.37-1.52,2.05,2.05,0,0,0,0-1.07A2.63,2.63,0,0,0,363,300.4a2.19,2.19,0,0,0,0-1,2.68,2.68,0,0,0,1.33-1.57A2.15,2.15,0,0,0,364.31,296.77Z" style="fill:#fff;opacity:0.30000000000000004"></path><path d="M383.09,273.38a26,26,0,1,0-46.15,8.53,4.28,4.28,0,0,1,.58,4,1.18,1.18,0,0,0-.07.2c-.8,3,5,7.19,12.95,9.3s15.05,1.36,15.86-1.67c0-.07,0-.13,0-.2a4.3,4.3,0,0,1,2.5-3.18A25.89,25.89,0,0,0,383.09,273.38Z" style="fill:#407BFF"></path><path d="M383.09,273.38a26,26,0,1,0-46.15,8.53,4.28,4.28,0,0,1,.58,4,1.18,1.18,0,0,0-.07.2c-.8,3,5,7.19,12.95,9.3s15.05,1.36,15.86-1.67c0-.07,0-.13,0-.2a4.3,4.3,0,0,1,2.5-3.18A25.89,25.89,0,0,0,383.09,273.38Z" style="fill:#fff;opacity:0.7000000000000001"></path><path d="M355.93,292.45l-.12,0a.31.31,0,0,1-.16-.41c.2-.47,4.71-11,11.56-13.73l-3.73-1a.31.31,0,0,1-.23-.25l-.47-3.27-4.39,5.16a.32.32,0,0,1-.32.1.31.31,0,0,1-.23-.25l-1.28-6.73-4.21,4.47a.3.3,0,0,1-.31.08.29.29,0,0,1-.22-.22l-1.45-5.94-2.05,2.64a.32.32,0,0,1-.33.11l-4-1.06c1.2,2.22,4.78,9.8,2.73,17.55a.32.32,0,0,1-.61-.16c2.37-8.92-3-17.63-3-17.72a.32.32,0,0,1,0-.35.31.31,0,0,1,.33-.12l4.52,1.2,2.33-3a.32.32,0,0,1,.31-.11.33.33,0,0,1,.24.23l1.46,6,4.24-4.5a.32.32,0,0,1,.31-.08.3.3,0,0,1,.22.24l1.27,6.7,4.42-5.19a.34.34,0,0,1,.33-.1.33.33,0,0,1,.22.26l.54,3.74,4.52,1.2a.32.32,0,0,1,.24.3.31.31,0,0,1-.23.3c-7.11,2-12.1,13.59-12.15,13.71A.3.3,0,0,1,355.93,292.45Z" style="fill:#263238"></path><path d="M369.85,250.71c1.13,5.59-4.44,11.45-12.45,13.08s-15.43-1.59-16.57-7.18,4.44-11.45,12.45-13.08S368.71,245.12,369.85,250.71Z" style="fill:#fff;opacity:0.4"></path><path d="M363.55,268.56c.46,2.25-1.78,4.6-5,5.25s-6.19-.63-6.65-2.88,1.78-4.6,5-5.25S363.1,266.32,363.55,268.56Z" style="fill:#fff;opacity:0.4"></path><path d="M221.25,350.34C251.44,331,329,288.1,416.89,291.27v59.07Z" style="fill:#fff;opacity:0.1"></path><path d="M198.48,294.73V205.42H364.89c-6.38,18-19.14,42.74-43.88,60.4C276.49,297.58,224.83,297.48,198.48,294.73Z" style="fill:#fff;opacity:0.1"></path></g><g id="freepik--Screen--inject-18"><path d="M155.61,155.51v129a2.2,2.2,0,0,1-2.23,2.19H74.07a2,2,0,0,1-2-2V155.34a1.77,1.77,0,0,1,1.7-1.85H93.62a1.4,1.4,0,0,1,1.27.9l.83,2a1.37,1.37,0,0,0,1.27.88h33.75a1.39,1.39,0,0,0,1.28-.87l.82-2a1.4,1.4,0,0,1,1.28-.9h19.54A2,2,0,0,1,155.61,155.51Z" style="fill:#407BFF"></path><path d="M151.28,153.49c-7.39,20.47-31.43,76.69-79.2,99.62V155.34a1.78,1.78,0,0,1,1.71-1.85H93.61a1.39,1.39,0,0,1,1.28.9l.82,2a1.39,1.39,0,0,0,1.28.89h33.75a1.39,1.39,0,0,0,1.28-.87l.82-2a1.4,1.4,0,0,1,1.28-.9Z" style="fill:#fff;opacity:0.1"></path><path d="M155.61,227v57.47a2.2,2.2,0,0,1-2.23,2.2H74.07a2,2,0,0,1-2-2V270C94.15,241,132.07,230.7,155.61,227Z" style="fill:#fff;opacity:0.1"></path><rect x="81.29" y="158.16" width="1.03" height="1.38" transform="translate(163.61 317.7) rotate(180)" style="fill:#fff;isolation:isolate;opacity:0.6000000000000001"></rect><rect x="79.61" y="157.7" width="1.03" height="1.83" transform="translate(160.25 317.24) rotate(180)" style="fill:#fff;isolation:isolate;opacity:0.6000000000000001"></rect><rect x="77.93" y="157.24" width="1.03" height="2.29" transform="translate(156.89 316.78) rotate(180)" style="fill:#fff;isolation:isolate;opacity:0.6000000000000001"></rect><rect x="76.25" y="156.79" width="1.03" height="2.75" transform="translate(153.52 316.32) rotate(180)" style="fill:#fff;isolation:isolate;opacity:0.6000000000000001"></rect><rect x="145.54" y="157.66" width="0.61" height="1.38" style="fill:#fff;isolation:isolate;opacity:0.6000000000000001"></rect><rect x="146.57" y="157.16" width="4.87" height="2.38" transform="translate(298.02 316.69) rotate(180)" style="fill:#fff;isolation:isolate;opacity:0.6000000000000001"></rect><path d="M139.62,252.67H88.08a.58.58,0,0,1-.59-.59h0a.58.58,0,0,1,.59-.58h51.54a.58.58,0,0,1,.58.58h0A.58.58,0,0,1,139.62,252.67Z" style="fill:#fff"></path><path d="M139.62,256H88.08a.58.58,0,0,1-.59-.58h0a.58.58,0,0,1,.59-.59h51.54a.58.58,0,0,1,.58.59h0A.58.58,0,0,1,139.62,256Z" style="fill:#fff"></path><path d="M136.84,259.41h-46a.58.58,0,0,1-.58-.58h0a.59.59,0,0,1,.58-.59h46a.59.59,0,0,1,.58.59h0A.58.58,0,0,1,136.84,259.41Z" style="fill:#fff"></path><path d="M139.62,262.79H88.08a.59.59,0,0,1-.59-.59h0a.58.58,0,0,1,.59-.58h51.54a.58.58,0,0,1,.58.58h0A.59.59,0,0,1,139.62,262.79Z" style="fill:#fff"></path><path d="M136.84,266.16h-46a.58.58,0,0,1-.58-.59h0a.58.58,0,0,1,.58-.58h46a.58.58,0,0,1,.58.58h0A.58.58,0,0,1,136.84,266.16Z" style="fill:#fff"></path><path d="M125.73,269.53H102a.58.58,0,0,1-.58-.58h0a.58.58,0,0,1,.58-.59h23.77a.59.59,0,0,1,.59.59h0A.59.59,0,0,1,125.73,269.53Z" style="fill:#fff"></path><path d="M133.24,181.41H94.45a1.25,1.25,0,0,1-1.25-1.25h0a1.25,1.25,0,0,1,1.25-1.24h38.79a1.25,1.25,0,0,1,1.25,1.24h0A1.25,1.25,0,0,1,133.24,181.41Z" style="fill:#fff"></path><path d="M141.58,186.52H86.12a1.25,1.25,0,0,1-1.25-1.24h0A1.25,1.25,0,0,1,86.12,184h55.46a1.25,1.25,0,0,1,1.24,1.25h0A1.25,1.25,0,0,1,141.58,186.52Z" style="fill:#fff"></path><rect x="100.67" y="273.14" width="26.36" height="6.41" rx="1.52" style="isolation:isolate;opacity:0.4"></rect><polygon points="122.15 274.99 122.15 277.71 125.1 276.35 122.15 274.99" style="fill:#fff"></polygon><path d="M98.25,195.89c11.12.24,8.09,22.54-5.8,21.17S86.32,195.63,98.25,195.89Z" style="isolation:isolate;opacity:0.2"></path><path d="M110.66,208.82c.16-.26.34-.52.53-.78,3.93-5.27,15.09-7.38,20.89-4.63,9.12,4.32,12.82,15.37,9.21,25.71a24,24,0,0,1-9,11.69,36.35,36.35,0,0,1-24.16,6.82c-6-.56-11.08-1.75-14.9-4.54a9.64,9.64,0,0,1-3.44-4.39,10.14,10.14,0,0,1,.48-7.59,11.44,11.44,0,0,1,5.13-4.79,36.45,36.45,0,0,0,8.26-5.47,22.88,22.88,0,0,0,5.19-8.06A25.36,25.36,0,0,1,110.66,208.82Z" style="isolation:isolate;opacity:0.2"></path><path d="M113.16,232.68c-.52,2-3.63,2.84-7,2s-5.58-3.18-5.06-5.14,3.63-2.84,6.94-2S113.68,230.72,113.16,232.68Z" style="fill:#263238"></path><path d="M117.48,226.87a1.82,1.82,0,0,0,.85-1c.51-1.92-3.17-4.57-8.22-5.91s-9.55-.86-10.06,1.06a1.78,1.78,0,0,0,.23,1.32,1.47,1.47,0,0,0-.32.57,1.74,1.74,0,0,0,.24,1.3,1.45,1.45,0,0,0-.33.59,1.74,1.74,0,0,0,.26,1.29,1.32,1.32,0,0,0-.34.59,1.64,1.64,0,0,0,.28,1.3,1.28,1.28,0,0,0-.37.59c-.43,1.6,2.63,3.8,6.83,4.91s7.94.72,8.36-.88a1.29,1.29,0,0,0,0-.7,1.63,1.63,0,0,0,.88-1,1.35,1.35,0,0,0,0-.69,1.68,1.68,0,0,0,.87-1,1.27,1.27,0,0,0,0-.67,1.74,1.74,0,0,0,.86-1A1.43,1.43,0,0,0,117.48,226.87Z" style="fill:#263238"></path><path d="M117.48,226.87a1.82,1.82,0,0,0,.85-1c.51-1.92-3.17-4.57-8.22-5.91s-9.55-.86-10.06,1.06a1.78,1.78,0,0,0,.23,1.32,1.47,1.47,0,0,0-.32.57,1.74,1.74,0,0,0,.24,1.3,1.45,1.45,0,0,0-.33.59,1.74,1.74,0,0,0,.26,1.29,1.32,1.32,0,0,0-.34.59,1.64,1.64,0,0,0,.28,1.3,1.28,1.28,0,0,0-.37.59c-.43,1.6,2.63,3.8,6.83,4.91s7.94.72,8.36-.88a1.29,1.29,0,0,0,0-.7,1.63,1.63,0,0,0,.88-1,1.35,1.35,0,0,0,0-.69,1.68,1.68,0,0,0,.87-1,1.27,1.27,0,0,0,0-.67,1.74,1.74,0,0,0,.86-1A1.43,1.43,0,0,0,117.48,226.87Z" style="fill:#fff;opacity:0.30000000000000004"></path><path d="M129.58,211.79a16.73,16.73,0,1,0-29.74,5.5,2.76,2.76,0,0,1,.37,2.56.5.5,0,0,0,0,.13c-.52,2,3.21,4.63,8.34,6s9.7.88,10.22-1.07l0-.13a2.75,2.75,0,0,1,1.61-2.05A16.71,16.71,0,0,0,129.58,211.79Z" style="fill:#407BFF"></path><path d="M129.58,211.79a16.73,16.73,0,1,0-29.74,5.5,2.76,2.76,0,0,1,.37,2.56.5.5,0,0,0,0,.13c-.52,2,3.21,4.63,8.34,6s9.7.88,10.22-1.07l0-.13a2.75,2.75,0,0,1,1.61-2.05A16.71,16.71,0,0,0,129.58,211.79Z" style="fill:#fff;opacity:0.7000000000000001"></path><path d="M112.08,224.08H112a.21.21,0,0,1-.11-.27c.13-.3,3-7.08,7.45-8.84l-2.4-.64a.2.2,0,0,1-.15-.16l-.3-2.11-2.83,3.33a.2.2,0,0,1-.21.06.19.19,0,0,1-.14-.16l-.83-4.34-2.72,2.88a.2.2,0,0,1-.19.06.23.23,0,0,1-.15-.15l-.93-3.83-1.32,1.7a.2.2,0,0,1-.21.08l-2.58-.69c.77,1.44,3.07,6.32,1.75,11.32a.2.2,0,1,1-.39-.11c1.53-5.75-1.91-11.36-1.95-11.42a.2.2,0,0,1,0-.22.21.21,0,0,1,.22-.08l2.91.77,1.5-1.92a.23.23,0,0,1,.2-.08.22.22,0,0,1,.16.15l.94,3.88,2.73-2.9a.19.19,0,0,1,.2-.06.2.2,0,0,1,.15.16l.81,4.32,2.85-3.35a.21.21,0,0,1,.21-.06.18.18,0,0,1,.14.16l.35,2.42,2.92.77a.19.19,0,0,1,.15.19.21.21,0,0,1-.15.2c-4.58,1.26-7.8,8.76-7.83,8.83A.18.18,0,0,1,112.08,224.08Z" style="fill:#263238"></path><path d="M121,197.18c.74,3.61-2.86,7.38-8,8.43s-9.94-1-10.68-4.63,2.86-7.37,8-8.42S120.31,193.58,121,197.18Z" style="fill:#fff;opacity:0.4"></path><path d="M117,208.69c.29,1.45-1.15,3-3.22,3.38s-4-.41-4.29-1.86,1.15-3,3.22-3.38S116.69,207.24,117,208.69Z" style="fill:#fff;opacity:0.4"></path><path d="M155.61,155.51V173.2H72.08V155.34a1.77,1.77,0,0,1,1.7-1.85H93.62a1.4,1.4,0,0,1,1.27.9l.83,2a1.37,1.37,0,0,0,1.27.88h33.75a1.39,1.39,0,0,0,1.28-.87l.82-2a1.4,1.4,0,0,1,1.28-.9h19.54A2,2,0,0,1,155.61,155.51Z" style="isolation:isolate;opacity:0.4"></path><path d="M94.06,167.2H75.85a.59.59,0,0,1-.59-.59h0a.59.59,0,0,1,.59-.58H94.06a.59.59,0,0,1,.59.58h0A.59.59,0,0,1,94.06,167.2Z" style="fill:#fff"></path><path d="M151.4,165H146a.42.42,0,0,1-.42-.42h0a.42.42,0,0,1,.42-.42h5.44a.42.42,0,0,1,.43.42h0A.42.42,0,0,1,151.4,165Z" style="fill:#fff"></path><path d="M151.4,167H146a.42.42,0,0,1-.42-.42h0a.42.42,0,0,1,.42-.42h5.44a.42.42,0,0,1,.43.42h0A.42.42,0,0,1,151.4,167Z" style="fill:#fff"></path><path d="M151.4,169.09H146a.42.42,0,0,1-.42-.43h0a.42.42,0,0,1,.42-.42h5.44a.42.42,0,0,1,.43.42h0A.43.43,0,0,1,151.4,169.09Z" style="fill:#fff"></path></g><g id="freepik--Arrow--inject-18"><rect x="235.57" y="332.52" width="5.14" height="8" style="fill:#407BFF"></rect><path d="M235.18,332.52H137.32a19.49,19.49,0,0,1-19.47-19.47V289.83H120l-6.1-8.23-6.1,8.23h2.1v23.22a27.5,27.5,0,0,0,27.47,27.47h97.86Z" style="fill:#407BFF"></path><rect x="242.16" y="332.52" width="2.9" height="8" style="fill:#407BFF"></rect><rect x="247.84" y="332.52" width="0.94" height="8" style="fill:#407BFF"></rect><g style="opacity:0.7000000000000001"><rect x="235.57" y="332.52" width="5.14" height="8" style="fill:#fff"></rect><path d="M235.18,332.52H137.32a19.49,19.49,0,0,1-19.47-19.47V289.83H120l-6.1-8.23-6.1,8.23h2.1v23.22a27.5,27.5,0,0,0,27.47,27.47h97.86Z" style="fill:#fff"></path><rect x="242.16" y="332.52" width="2.9" height="8" style="fill:#fff"></rect><rect x="247.84" y="332.52" width="0.94" height="8" style="fill:#fff"></rect></g></g></svg>
