<?xml version="1.0" encoding="UTF-8" standalone="no"?>
<svg 
    role="img" 
    xmlns="http://www.w3.org/2000/svg" 
    width="1000mm"
    height="1000mm"
    viewBox="0 0 1000 1000"
    style="max-width:1.6em; height: auto;">
    
    <path 
        id="path" 
        style="opacity:1;vector-effect:none;fill:#000000;fill-opacity:1;"
        d=" M 850 175C 891 175 925 209 925 250C 925 250 925 750 925 750C 925 791 891 825 850 825C 850 825 150 825 150 825C 109 825 75 791 75 750C 75 750 75 250 75 250C 75 209 109 175 150 175C 150 175 850 175 850 175M 125 250C 125 250 125 325 125 325C 125 325 875 325 875 325C 875 325 875 250 875 250C 875 236 864 225 850 225C 850 225 150 225 150 225C 136 225 125 236 125 250C 125 250 125 250 125 250M 700 275C 700 289 689 300 675 300C 661 300 650 289 650 275C 650 261 661 250 675 250C 689 250 700 261 700 275C 700 275 700 275 700 275M 775 275C 775 289 764 300 750 300C 736 300 725 289 725 275C 725 261 736 250 750 250C 764 250 775 261 775 275C 775 275 775 275 775 275M 850 275C 850 289 839 300 825 300C 811 300 800 289 800 275C 800 261 811 250 825 250C 839 250 850 261 850 275C 850 275 850 275 850 275M 125 750C 125 764 136 775 150 775C 150 775 850 775 850 775C 864 775 875 764 875 750C 875 750 875 375 875 375C 875 375 125 375 125 375C 125 375 125 750 125 750"
        transform="">
    </path>    
</svg>